<svg width="32" height="40" viewBox="0 0 32 40" fill="none" xmlns="http://www.w3.org/2000/svg">
<path fill-rule="evenodd" clip-rule="evenodd" d="M20.6452 0.51282C20.6452 0.229597 20.4141 0 20.129 0H5.67742C2.54187 0 0 2.52558 0 5.64103V34.359C0 37.4744 2.54187 40 5.67742 40H26.3226C29.4581 40 32 37.4744 32 34.359V14.1478C32 13.8646 31.7689 13.635 31.4839 13.635H22.1935C21.3384 13.635 20.6452 12.9462 20.6452 12.0965V0.51282Z" fill="#2FA860"/>
<path d="M23.0003 1.58297C23.0003 1.20452 23.398 0.964225 23.6944 1.20195C23.944 1.40218 24.1684 1.63676 24.3598 1.90177L30.5805 10.5128C30.7222 10.7089 30.5688 10.9633 30.3259 10.9633H23.5164C23.2314 10.9633 23.0003 10.7337 23.0003 10.4505V1.58297Z" fill="#2FA860"/>
<path d="M8.464 30V24.4H12.88V25.592H9.84V26.6H11.848V27.752H9.84V28.808H12.912V30H8.464ZM13.1397 30L14.7477 27.856L13.1637 25.768H14.6677L15.4997 26.904L16.3237 25.768H17.7717L16.2117 27.84L17.8597 30H16.3557L15.4677 28.792L14.5877 30H13.1397ZM19.9729 30.08C19.5409 30.08 19.1489 29.984 18.7969 29.792C18.4503 29.5947 18.1756 29.3307 17.9729 29C17.7703 28.6693 17.6689 28.2987 17.6689 27.888C17.6689 27.4773 17.7649 27.1067 17.9569 26.776C18.1543 26.4453 18.4209 26.184 18.7569 25.992C19.0929 25.7947 19.4663 25.696 19.8769 25.696C20.2929 25.696 20.6609 25.7973 20.9809 26C21.3009 26.1973 21.5516 26.4693 21.7329 26.816C21.9196 27.1627 22.0129 27.56 22.0129 28.008V28.328H18.9969C19.0556 28.4613 19.1329 28.5787 19.2289 28.68C19.3303 28.7813 19.4503 28.8613 19.5889 28.92C19.7276 28.9733 19.8769 29 20.0369 29C20.2129 29 20.3729 28.9733 20.5169 28.92C20.6609 28.8613 20.7836 28.7813 20.8849 28.68L21.7409 29.44C21.4743 29.664 21.1996 29.8267 20.9169 29.928C20.6396 30.0293 20.3249 30.08 19.9729 30.08ZM18.9729 27.424H20.7409C20.6983 27.2853 20.6316 27.168 20.5409 27.072C20.4556 26.9707 20.3543 26.8933 20.2369 26.84C20.1196 26.7813 19.9916 26.752 19.8529 26.752C19.7089 26.752 19.5783 26.7787 19.4609 26.832C19.3436 26.8853 19.2423 26.9627 19.1569 27.064C19.0769 27.16 19.0156 27.28 18.9729 27.424ZM22.6188 30V24.4L23.9148 24.2V30H22.6188Z" fill="white"/>
</svg>
