<svg width="35" height="30" viewBox="0 0 35 30" fill="none" xmlns="http://www.w3.org/2000/svg">
<path fill-rule="evenodd" clip-rule="evenodd" d="M17.5001 0L21.6634 7.1413L12.4167 22.886H15.101L22.9756 9.38669L35 30H0L17.5001 0ZM9.47953 24.5939H14.1047L11.9474 28.2921H3.00834L17.5001 3.4493L19.6571 7.14693L9.47953 24.5939ZM16.1168 24.5939L13.9594 28.2921H16.562L18.7192 24.5939H16.1168ZM29.8345 24.5939H20.7313L18.5741 28.2921H31.9917L29.8345 24.5939ZM25.2829 16.7913L21.7277 22.886H28.8382L25.2829 16.7913ZM17.1131 22.886H19.7157L24.2769 15.0667L22.9756 12.836L17.1131 22.886Z" fill="white"/>
</svg>
