<svg width="350" height="303" viewBox="0 0 350 303" fill="none" xmlns="http://www.w3.org/2000/svg">
<path fill-rule="evenodd" clip-rule="evenodd" d="M175.001 0L216.634 72.1271L124.167 231.149H151.01L229.756 94.8056L350 303H0L175.001 0ZM94.7953 248.399H141.047L119.474 285.75H30.0834L175.001 34.8379L196.571 72.184L94.7953 248.399ZM161.168 248.399L139.594 285.75H165.62L187.192 248.399H161.168ZM298.345 248.399H207.313L185.741 285.75H319.917L298.345 248.399ZM252.829 169.593L217.277 231.149H288.382L252.829 169.593ZM171.131 231.149H197.157L242.769 152.174L229.756 129.643L171.131 231.149Z" fill="#9E3039"/>
</svg>
