<svg width="72" height="63" viewBox="0 0 72 63" fill="none" xmlns="http://www.w3.org/2000/svg">
<path fill-rule="evenodd" clip-rule="evenodd" d="M36.0002 0L44.5647 14.9967L25.543 48.0607H31.0648L47.264 19.712L72 63H0L36.0002 0ZM19.5008 51.6473H29.0154L24.5774 59.4134H6.18859L36.0002 7.24353L40.4375 15.0086L19.5008 51.6473ZM33.1546 51.6473L28.7166 59.4134H34.0705L38.5081 51.6473H33.1546ZM61.3738 51.6473H42.6473L38.2096 59.4134H65.8114L61.3738 51.6473ZM52.0105 35.2618L44.6971 48.0607H59.3243L52.0105 35.2618ZM35.204 48.0607H40.5579L49.941 31.6401L47.264 26.9556L35.204 48.0607Z" fill="white"/>
</svg>
