<svg width="182" height="56" viewBox="0 0 182 56" fill="none" xmlns="http://www.w3.org/2000/svg">
<path fill-rule="evenodd" clip-rule="evenodd" d="M90.3064 0L94.538 7.28613L85.1396 23.3502H87.8679L95.8717 9.57706L108.093 30.6084H72.5192L90.3064 0ZM82.1542 25.0927H86.8553L84.6625 28.8659H75.5769L90.3064 3.51926L92.4988 7.29188L82.1542 25.0927ZM88.9004 25.0927L86.7076 28.8659H89.3529L91.5455 25.0927H88.9004ZM93.5906 25.0927L91.398 28.8659H105.036L102.843 25.0927H93.5906ZM98.2169 17.1319L94.6034 23.3502H101.831L98.2169 17.1319ZM89.913 23.3502H92.5583L97.1943 15.3723L95.8717 13.0963L89.913 23.3502Z" fill="#9E3039"/>
<path d="M81.9247 37.5234C82.1585 37.5234 82.3752 37.5618 82.5747 37.6388L82.9161 38.8757L83.1733 38.8342L83.4586 37.348L83.4306 37.3064C82.8413 37.1649 82.316 37.0941 81.8545 37.0941C81.1281 37.0941 80.5373 37.268 80.0821 37.6157C79.6269 37.9634 79.3993 38.4311 79.3993 39.0188C79.3993 39.305 79.4461 39.5496 79.5396 39.7527C79.6332 39.9527 79.7548 40.125 79.9044 40.2696C80.0541 40.4142 80.224 40.5373 80.4142 40.6389C80.6043 40.7404 80.7945 40.8373 80.9847 40.9296C81.1593 41.0096 81.3276 41.0896 81.4898 41.1696C81.6519 41.2496 81.7969 41.342 81.9247 41.4466C82.0525 41.5481 82.1538 41.665 82.2287 41.7974C82.3035 41.9266 82.3409 42.0851 82.3409 42.2728C82.3409 42.6051 82.2193 42.8712 81.9761 43.0712C81.7361 43.2682 81.4181 43.3666 81.0221 43.3666C80.7477 43.3666 80.4983 43.3159 80.2739 43.2143L79.9231 41.802L79.6332 41.8481L79.3853 43.5097L79.4134 43.5513C79.9621 43.7266 80.5186 43.8143 81.0829 43.8143C81.8655 43.8143 82.4952 43.6359 82.9723 43.2789C83.4493 42.922 83.6878 42.4312 83.6878 41.8066C83.6878 41.5173 83.6395 41.2712 83.5428 41.0681C83.4493 40.865 83.3261 40.6912 83.1733 40.5465C83.0206 40.3988 82.8475 40.2727 82.6542 40.1681C82.4609 40.0604 82.2692 39.9619 82.079 39.8727C81.9075 39.7927 81.7407 39.7127 81.5786 39.6327C81.4196 39.5527 81.2778 39.4619 81.1531 39.3604C81.0283 39.2588 80.9286 39.1434 80.8538 39.0142C80.7789 38.885 80.7415 38.7296 80.7415 38.548C80.7415 38.2465 80.8553 38.0003 81.0829 37.8095C81.3136 37.6188 81.5942 37.5234 81.9247 37.5234Z" fill="#9E3039"/>
<path d="M83.1687 35.3772L81.6535 36.0556L80.1382 35.3772L79.9886 35.6172L81.2606 36.7757H82.0463L83.3183 35.6172L83.1687 35.3772Z" fill="#9E3039"/>
<path fill-rule="evenodd" clip-rule="evenodd" d="M78.5014 40.2927C78.5014 41.3573 78.1834 42.2143 77.5474 42.8635C76.9114 43.5097 76.0259 43.8328 74.8911 43.8328C73.8061 43.8328 72.9674 43.5343 72.3751 42.9374C71.7827 42.3374 71.4865 41.5266 71.4865 40.505C71.4865 39.4404 71.8061 38.5988 72.4452 37.9803C73.0844 37.3588 73.9682 37.048 75.0969 37.048C76.1818 37.048 77.0205 37.3388 77.6129 37.9203C78.2052 38.4988 78.5014 39.2896 78.5014 40.2927ZM73.0579 40.3527C73.0579 41.3373 73.2262 42.0912 73.5629 42.6143C73.8996 43.1343 74.3938 43.3943 75.0454 43.3943C75.6877 43.3943 76.1616 43.1574 76.4671 42.6835C76.7758 42.2097 76.9301 41.465 76.9301 40.4496C76.9301 39.4957 76.768 38.7634 76.4437 38.2526C76.1195 37.7388 75.6175 37.4818 74.9379 37.4818C74.28 37.4818 73.8014 37.7203 73.5021 38.1972C73.2059 38.6711 73.0579 39.3896 73.0579 40.3527Z" fill="#9E3039"/>
<path d="M40.3871 37.5234C40.621 37.5234 40.8376 37.5618 41.0372 37.6388L41.3786 38.8757L41.6358 38.8342L41.9211 37.348L41.893 37.3064C41.3037 37.1649 40.7784 37.0941 40.317 37.0941C39.5905 37.0941 38.9997 37.268 38.5445 37.6157C38.0894 37.9634 37.8618 38.4311 37.8618 39.0188C37.8618 39.305 37.9085 39.5496 38.0021 39.7527C38.0956 39.9527 38.2172 40.125 38.3668 40.2696C38.5165 40.4142 38.6864 40.5373 38.8766 40.6389C39.0668 40.7404 39.2569 40.8373 39.4471 40.9296C39.6217 41.0096 39.7901 41.0896 39.9522 41.1696C40.1143 41.2496 40.2593 41.342 40.3871 41.4466C40.515 41.5481 40.6163 41.665 40.6911 41.7974C40.7659 41.9266 40.8033 42.0851 40.8033 42.2728C40.8033 42.6051 40.6818 42.8712 40.4386 43.0712C40.1985 43.2682 39.8805 43.3666 39.4845 43.3666C39.2102 43.3666 38.9608 43.3159 38.7363 43.2143L38.3855 41.802L38.0956 41.8481L37.8477 43.5097L37.8758 43.5513C38.4245 43.7266 38.981 43.8143 39.5453 43.8143C40.3279 43.8143 40.9577 43.6359 41.4347 43.2789C41.9117 42.922 42.1502 42.4312 42.1502 41.8066C42.1502 41.5173 42.1019 41.2712 42.0052 41.0681C41.9117 40.865 41.7885 40.6912 41.6358 40.5465C41.483 40.3988 41.31 40.2727 41.1167 40.1681C40.9234 40.0604 40.7316 39.9619 40.5415 39.8727C40.37 39.7927 40.2032 39.7127 40.0411 39.6327C39.8821 39.5527 39.7402 39.4619 39.6155 39.3604C39.4908 39.2588 39.391 39.1434 39.3162 39.0142C39.2414 38.885 39.2039 38.7296 39.2039 38.548C39.2039 38.2465 39.3177 38.0003 39.5453 37.8095C39.7761 37.6188 40.0566 37.5234 40.3871 37.5234Z" fill="#9E3039"/>
<path fill-rule="evenodd" clip-rule="evenodd" d="M6.75301 42.4758L7.08505 41.6127H9.00246L9.31111 42.4805C9.37035 42.6435 9.41556 42.7758 9.44673 42.8774C9.47791 42.9759 9.4935 43.0559 9.4935 43.1174C9.4935 43.1728 9.47947 43.2143 9.45141 43.242C9.42335 43.2697 9.37814 43.2928 9.31579 43.3112L8.85281 43.4451L8.87619 43.6759C9.41244 43.6666 9.96272 43.662 10.527 43.662C10.9542 43.662 11.3782 43.6666 11.7991 43.6759L11.785 43.4451L11.3267 43.3112C11.2083 43.2774 11.1163 43.2236 11.0508 43.1497C10.9885 43.0728 10.9183 42.9266 10.8404 42.7112L8.82475 37.0987L8.31967 37.1726L5.99073 42.7712C5.92214 42.9312 5.85978 43.0512 5.80366 43.1312C5.74754 43.2082 5.66025 43.2636 5.54177 43.2974L5.04138 43.4451L5.06476 43.6759C5.44512 43.6666 5.7834 43.662 6.07958 43.662C6.3633 43.662 6.73119 43.6666 7.18326 43.6759L7.16923 43.4359L6.72028 43.3066C6.66104 43.2912 6.61739 43.2697 6.58933 43.242C6.56127 43.2143 6.54724 43.1743 6.54724 43.122C6.54724 43.0666 6.56439 42.9882 6.59868 42.8866C6.6361 42.782 6.68754 42.6451 6.75301 42.4758ZM7.91281 39.4619C7.97828 39.2896 8.03908 39.1234 8.0952 38.9634C8.14508 39.1234 8.19964 39.2911 8.25888 39.4665L8.8341 41.1327H7.27211L7.91281 39.4619Z" fill="#9E3039"/>
<path d="M2.1185 42.1666V38.2203C2.12162 38.0142 2.12474 37.8557 2.12785 37.7449C2.13409 37.6711 2.17462 37.6249 2.24944 37.6065L2.82934 37.4357L2.80596 37.2003C2.40689 37.2126 1.93611 37.2188 1.39363 37.2188C0.86673 37.2188 0.402188 37.2126 0 37.2003L0.0140298 37.4357L0.593928 37.6157C0.665636 37.6372 0.703049 37.688 0.706167 37.768C0.709284 37.8726 0.710843 37.988 0.710843 38.1142C0.713961 38.2403 0.71552 38.3803 0.71552 38.5342V42.2128C0.71552 42.3974 0.713961 42.5666 0.710843 42.7205C0.710843 42.8712 0.709284 43.0082 0.706167 43.1312C0.699931 43.2051 0.657842 43.2528 0.579898 43.2743L0 43.4451L0.023383 43.6759C0.419335 43.6666 0.849582 43.662 1.31412 43.662H2.47392C3.20971 43.662 3.96264 43.6666 4.73272 43.6759L4.76546 43.6436L4.88237 41.8204L4.5971 41.862L3.9564 43.1728H2.12785C2.12162 42.8405 2.1185 42.5051 2.1185 42.1666Z" fill="#9E3039"/>
<path d="M14.2543 43.662C13.7056 43.662 13.1818 43.6666 12.6829 43.6759L12.6596 43.4451L13.4078 43.242C13.4858 43.2174 13.5263 43.1682 13.5294 43.0943C13.5356 42.8635 13.5388 42.5666 13.5388 42.2035V37.6941H12.1919L11.7617 38.9219L11.4998 38.9634L11.3782 37.2372L11.4109 37.2003C12.1779 37.2126 12.9121 37.2188 13.6136 37.2188H14.9184C15.6198 37.2188 16.3587 37.2126 17.1351 37.2003L17.1631 37.2372L16.8545 38.9265L16.5926 38.968L16.2886 37.6941H14.9371V42.2035C14.9371 42.5666 14.9402 42.8635 14.9464 43.0943C14.9495 43.1682 14.9916 43.2174 15.0727 43.242L15.8069 43.4451L15.8209 43.6759C15.3034 43.6666 14.7812 43.662 14.2543 43.662Z" fill="#9E3039"/>
<path d="M21.0447 41.8712C20.9948 41.7081 20.9403 41.5389 20.881 41.3635L19.8475 38.4003C19.7883 38.2342 19.743 38.1019 19.7119 38.0034C19.6807 37.9018 19.6651 37.8203 19.6651 37.7588C19.6651 37.7034 19.6791 37.6618 19.7072 37.6341C19.7353 37.6065 19.7805 37.5834 19.8428 37.5649L20.3011 37.4357L20.2777 37.2003C19.7415 37.2126 19.1912 37.2188 18.6269 37.2188C18.2029 37.2188 17.7789 37.2126 17.3549 37.2003L17.3736 37.4357L17.8272 37.5649C17.9457 37.6018 18.0361 37.6588 18.0984 37.7357C18.1639 37.8095 18.2356 37.9526 18.3136 38.1649L20.3198 43.7313L20.8109 43.6851L23.1071 38.1095C23.1757 37.9465 23.238 37.8265 23.2941 37.7495C23.3503 37.6726 23.436 37.6157 23.5514 37.5788L24.0564 37.4357L24.0284 37.2003C23.6511 37.2126 23.3144 37.2188 23.0182 37.2188C22.7345 37.2188 22.3666 37.2126 21.9146 37.2003L21.9286 37.4449L22.3729 37.5695C22.4321 37.5849 22.4757 37.6065 22.5038 37.6341C22.535 37.6618 22.5506 37.7018 22.5506 37.7542C22.5506 37.8126 22.5319 37.8926 22.4944 37.9942C22.4602 38.0957 22.4118 38.2326 22.3495 38.4049L21.2224 41.3681C21.1601 41.5404 21.1008 41.7081 21.0447 41.8712Z" fill="#9E3039"/>
<path d="M26.362 42.7158C26.3651 42.8666 26.3682 43.002 26.3714 43.122C26.3745 43.202 26.4275 43.2559 26.5304 43.2836L27.1056 43.4451L27.1196 43.6759C26.6862 43.6666 26.2061 43.662 25.6792 43.662C25.1336 43.662 24.6472 43.6666 24.2201 43.6759L24.1967 43.4451L24.8234 43.2743C24.9013 43.2528 24.9434 43.2051 24.9497 43.1312C24.9528 43.0082 24.9543 42.8712 24.9543 42.7205C24.9575 42.5666 24.959 42.3974 24.959 42.2128V38.5342C24.959 38.3803 24.9575 38.2403 24.9543 38.1142C24.9543 37.988 24.9528 37.8726 24.9497 37.768C24.9465 37.688 24.9091 37.6372 24.8374 37.6157L24.2108 37.4357L24.1967 37.2003C24.6301 37.2126 25.1102 37.2188 25.6371 37.2188C26.1796 37.2188 26.666 37.2126 27.0962 37.2003L27.1196 37.4357L26.4929 37.6065C26.4181 37.6249 26.3776 37.6711 26.3714 37.7449C26.3682 37.8557 26.3651 37.9757 26.362 38.1049V42.7158Z" fill="#9E3039"/>
<path d="M29.3083 37.2188C28.7814 37.2188 28.2997 37.2126 27.8632 37.2003L27.8772 37.4357L28.5086 37.6157C28.5803 37.6372 28.6177 37.688 28.6208 37.768C28.6239 37.8726 28.6255 37.988 28.6255 38.1142C28.6286 38.2403 28.6301 38.3803 28.6301 38.5342V42.8266C28.6301 43.1497 28.6177 43.4405 28.5927 43.699C28.5709 43.9574 28.5164 44.1897 28.4291 44.3959C28.3418 44.6021 28.2139 44.7851 28.0456 44.9451C27.8772 45.1082 27.6418 45.2559 27.3394 45.3882L27.4283 45.6606C27.7962 45.5929 28.1157 45.5129 28.387 45.4205C28.6613 45.3282 28.8936 45.2221 29.0838 45.1021C29.2771 44.9821 29.4345 44.8451 29.5561 44.6913C29.6777 44.5405 29.7728 44.3682 29.8414 44.1744C29.91 43.9805 29.9583 43.7605 29.9864 43.5143C30.0144 43.2682 30.0285 42.9928 30.0285 42.6882V38.1049C30.0316 37.9757 30.0347 37.8557 30.0378 37.7449C30.044 37.6711 30.0861 37.6249 30.1641 37.6065L30.7907 37.4357L30.7674 37.2003C30.334 37.2126 29.8476 37.2188 29.3083 37.2188Z" fill="#9E3039"/>
<path fill-rule="evenodd" clip-rule="evenodd" d="M32.7876 41.6127L32.4556 42.4758C32.3901 42.6451 32.3387 42.782 32.3013 42.8866C32.267 42.9882 32.2498 43.0666 32.2498 43.122C32.2498 43.1743 32.2639 43.2143 32.2919 43.242C32.32 43.2697 32.3636 43.2912 32.4229 43.3066L32.8718 43.4359L32.8859 43.6759C32.4338 43.6666 32.0659 43.662 31.7822 43.662C31.486 43.662 31.1477 43.6666 30.7674 43.6759L30.744 43.4451L31.2444 43.2974C31.3628 43.2636 31.4501 43.2082 31.5063 43.1312C31.5624 43.0512 31.6247 42.9312 31.6933 42.7712L34.0223 37.1726L34.5273 37.0987L36.543 42.7112C36.6209 42.9266 36.6911 43.0728 36.7534 43.1497C36.8189 43.2236 36.9109 43.2774 37.0293 43.3112L37.4876 43.4451L37.5017 43.6759C37.0808 43.6666 36.6568 43.662 36.2296 43.662C35.6653 43.662 35.115 43.6666 34.5788 43.6759L34.5554 43.4451L35.0184 43.3112C35.0807 43.2928 35.1259 43.2697 35.154 43.242C35.1821 43.2143 35.1961 43.1728 35.1961 43.1174C35.1961 43.0559 35.1805 42.9759 35.1493 42.8774C35.1182 42.7758 35.0729 42.6435 35.0137 42.4805L34.7051 41.6127H32.7876ZM33.7978 38.9634C33.7417 39.1234 33.6809 39.2896 33.6154 39.4619L32.9747 41.1327H34.5367L33.9615 39.4665C33.9022 39.2911 33.8477 39.1234 33.7978 38.9634Z" fill="#9E3039"/>
<path fill-rule="evenodd" clip-rule="evenodd" d="M46.3966 41.6127L46.0645 42.4758C45.999 42.6451 45.9476 42.782 45.9102 42.8866C45.8759 42.9882 45.8587 43.0666 45.8587 43.122C45.8587 43.1743 45.8728 43.2143 45.9008 43.242C45.9289 43.2697 45.9725 43.2912 46.0318 43.3066L46.4807 43.4359L46.4948 43.6759C46.0427 43.6666 45.6748 43.662 45.3911 43.662C45.0949 43.662 44.7566 43.6666 44.3763 43.6759L44.3529 43.4451L44.8533 43.2974C44.9718 43.2636 45.059 43.2082 45.1152 43.1312C45.1713 43.0512 45.2336 42.9312 45.3022 42.7712L47.6312 37.1726L48.1363 37.0987L50.1519 42.7112C50.2298 42.9266 50.3 43.0728 50.3623 43.1497C50.4278 43.2236 50.5198 43.2774 50.6382 43.3112L51.0965 43.4451L51.1106 43.6759C50.6897 43.6666 50.2657 43.662 49.8385 43.662C49.2742 43.662 48.7239 43.6666 48.1877 43.6759L48.1643 43.4451L48.6273 43.3112C48.6897 43.2928 48.7349 43.2697 48.7629 43.242C48.791 43.2143 48.805 43.1728 48.805 43.1174C48.805 43.0559 48.7894 42.9759 48.7582 42.8774C48.7271 42.7758 48.6819 42.6435 48.6226 42.4805L48.314 41.6127H46.3966ZM47.4067 38.9634C47.3506 39.1234 47.2898 39.2896 47.2243 39.4619L46.5836 41.1327H48.1456L47.5704 39.4665C47.5111 39.2911 47.4566 39.1234 47.4067 38.9634Z" fill="#9E3039"/>
<path fill-rule="evenodd" clip-rule="evenodd" d="M53.6079 42.7112V40.9573C53.8666 40.9912 54.1067 41.0081 54.3281 41.0081C55.148 41.0081 55.7825 40.8235 56.2314 40.4542C56.6835 40.0819 56.9096 39.5619 56.9096 38.8942C56.9096 38.328 56.6929 37.9018 56.2595 37.6157C55.8261 37.3264 55.1886 37.1818 54.3468 37.1818C54.1192 37.1818 53.8666 37.188 53.5892 37.2003C53.3148 37.2126 53.0311 37.2188 52.738 37.2188C52.3109 37.2188 51.8791 37.2126 51.4426 37.2003L51.4566 37.4357L52.0833 37.6157C52.155 37.6372 52.1924 37.688 52.1955 37.768C52.1987 37.8726 52.2002 37.988 52.2002 38.1142C52.2033 38.2403 52.2049 38.3803 52.2049 38.5342V42.2128C52.2049 42.3974 52.2033 42.5666 52.2002 42.7205C52.2002 42.8712 52.1987 43.0082 52.1955 43.1312C52.1924 43.202 52.1503 43.2497 52.0693 43.2743L51.4426 43.4451L51.466 43.6759C51.8931 43.6666 52.3795 43.662 52.9251 43.662C53.452 43.662 53.9571 43.6666 54.4403 43.6759L54.4263 43.4451L53.7388 43.2512C53.6609 43.2236 53.6203 43.1743 53.6172 43.1035C53.6141 42.9866 53.611 42.8559 53.6079 42.7112ZM54.1363 40.565C53.9617 40.565 53.7856 40.5481 53.6079 40.5142V37.6618C53.7825 37.6372 53.9555 37.6249 54.127 37.6249C54.5635 37.6249 54.883 37.7449 55.0857 37.9849C55.2883 38.2219 55.3897 38.5834 55.3897 39.0696C55.3897 39.5711 55.2821 39.9465 55.067 40.1958C54.855 40.4419 54.5448 40.565 54.1363 40.565Z" fill="#9E3039"/>
<path fill-rule="evenodd" clip-rule="evenodd" d="M58.6586 43.662C58.2564 43.662 57.8418 43.6666 57.4146 43.6759L57.3912 43.4451L58.0179 43.2743C58.099 43.2497 58.1411 43.202 58.1442 43.1312C58.1473 43.0082 58.1489 42.8712 58.1489 42.7205C58.152 42.5666 58.1535 42.3974 58.1535 42.2128V38.5342C58.1535 38.3803 58.152 38.2403 58.1489 38.1142C58.1489 37.988 58.1473 37.8726 58.1442 37.768C58.1411 37.688 58.1036 37.6372 58.0319 37.6157L57.4053 37.4357L57.3912 37.2003C57.8277 37.2126 58.2455 37.2188 58.6446 37.2188C58.9813 37.2188 59.304 37.2111 59.6126 37.1957C59.9213 37.1803 60.2409 37.1726 60.5713 37.1726C61.7342 37.1726 62.6088 37.4188 63.1949 37.9111C63.781 38.4003 64.0741 39.128 64.0741 40.0942C64.0741 41.2327 63.7483 42.1174 63.0967 42.7482C62.4482 43.3759 61.5347 43.6897 60.3562 43.6897C60.032 43.6897 59.7436 43.6851 59.491 43.6759C59.2385 43.6666 58.961 43.662 58.6586 43.662ZM59.5565 43.1912C59.7062 43.2189 59.8527 43.2374 59.9961 43.2466C60.1395 43.2528 60.2845 43.2559 60.431 43.2559C61.1076 43.2559 61.622 43.0205 61.9743 42.5497C62.3266 42.0789 62.5028 41.362 62.5028 40.3988C62.5028 39.4604 62.3344 38.765 61.9977 38.3126C61.661 37.8572 61.131 37.6295 60.4077 37.6295C60.1395 37.6295 59.8558 37.6418 59.5565 37.6665V43.1912Z" fill="#9E3039"/>
<path fill-rule="evenodd" clip-rule="evenodd" d="M67.1092 42.7112V40.6712L67.3056 40.6758C67.3555 40.6789 67.3961 40.6866 67.4272 40.6989C67.4615 40.7081 67.4927 40.725 67.5208 40.7496C67.5519 40.7712 67.5816 40.805 67.6096 40.8512C67.6408 40.8973 67.6798 40.9558 67.7265 41.0266C67.8824 41.2727 68.0305 41.522 68.1708 41.7743C68.3142 42.0266 68.453 42.2651 68.587 42.4897C68.7211 42.7143 68.8474 42.9159 68.9658 43.0943C69.0874 43.2728 69.2199 43.4174 69.3633 43.5282C69.46 43.602 69.5707 43.659 69.6954 43.699C69.8201 43.739 70.0383 43.759 70.3501 43.759C70.7429 43.759 71.0921 43.7374 71.3977 43.6943L71.379 43.4589C71.301 43.4436 71.2293 43.4282 71.1638 43.4128C71.1015 43.3943 71.0422 43.3728 70.9861 43.3482C70.93 43.3236 70.8754 43.2943 70.8224 43.2605C70.7726 43.2266 70.7196 43.1866 70.6634 43.1405C70.5606 43.0389 70.4499 42.9005 70.3314 42.7251C70.216 42.5497 70.0867 42.3481 69.9432 42.1204C69.7998 41.8897 69.6564 41.6558 69.513 41.4189C69.3727 41.182 69.1716 40.8727 68.9097 40.4912C69.3836 40.3404 69.7421 40.125 69.9853 39.845C70.2316 39.5619 70.3548 39.1911 70.3548 38.7326C70.3548 38.2249 70.1537 37.8388 69.7515 37.5741C69.3524 37.3095 68.7523 37.1772 67.951 37.1772C67.8793 37.1772 67.7795 37.1787 67.6517 37.1818C67.527 37.1849 67.3711 37.1895 67.1841 37.1957C66.9783 37.2018 66.8037 37.208 66.6603 37.2141C66.5169 37.2172 66.3968 37.2188 66.3002 37.2188C65.8419 37.2188 65.3945 37.2126 64.958 37.2003L64.972 37.4357L65.5987 37.6157C65.6704 37.6372 65.7078 37.688 65.7109 37.768C65.714 37.8726 65.7156 37.988 65.7156 38.1142C65.7187 38.2403 65.7203 38.3803 65.7203 38.5342V42.2128C65.7203 42.3974 65.7187 42.5666 65.7156 42.7205C65.7156 42.8712 65.714 43.0082 65.7109 43.1312C65.7047 43.2051 65.6626 43.2528 65.5846 43.2743L64.958 43.4451L64.9814 43.6759C65.4085 43.6666 65.8949 43.662 66.4405 43.662C66.9518 43.662 67.3805 43.6666 67.7265 43.6759L67.7125 43.4451L67.2261 43.2882C67.1575 43.2666 67.1217 43.2066 67.1186 43.1082C67.1155 42.9882 67.1123 42.8559 67.1092 42.7112ZM67.5582 40.2835C67.4241 40.2835 67.2745 40.2788 67.1092 40.2696V37.6572C67.2121 37.6449 67.3041 37.6357 67.3851 37.6295C67.4693 37.6234 67.5473 37.6203 67.619 37.6203C68.0368 37.6203 68.3438 37.7249 68.5403 37.9342C68.7398 38.1403 68.8396 38.4696 68.8396 38.9219C68.8396 39.3896 68.7367 39.7342 68.5309 39.9558C68.3251 40.1742 68.0009 40.2835 67.5582 40.2835Z" fill="#9E3039"/>
<path d="M86.5873 42.7158C86.5904 42.8666 86.5935 43.002 86.5966 43.122C86.5997 43.202 86.6527 43.2559 86.7556 43.2836L87.3308 43.4451L87.3449 43.6759C86.9115 43.6666 86.4314 43.662 85.9045 43.662C85.3589 43.662 84.8725 43.6666 84.4454 43.6759L84.422 43.4451L85.0487 43.2743C85.1266 43.2528 85.1687 43.2051 85.1749 43.1312C85.178 43.0082 85.1796 42.8712 85.1796 42.7205C85.1827 42.5666 85.1843 42.3974 85.1843 42.2128V38.5342C85.1843 38.3803 85.1827 38.2403 85.1796 38.1142C85.1796 37.988 85.178 37.8726 85.1749 37.768C85.1718 37.688 85.1344 37.6372 85.0627 37.6157L84.436 37.4357L84.422 37.2003C84.8554 37.2126 85.3355 37.2188 85.8624 37.2188C86.4049 37.2188 86.8912 37.2126 87.3215 37.2003L87.3449 37.4357L86.7182 37.6065C86.6434 37.6249 86.6029 37.6711 86.5966 37.7449C86.5935 37.8557 86.5904 37.9757 86.5873 38.1049V42.7158Z" fill="#9E3039"/>
<path d="M89.5476 43.2743C89.4727 43.2559 89.4338 43.202 89.4306 43.1128C89.4244 42.8759 89.4213 42.5758 89.4213 42.2128V39.2911C89.4213 39.1003 89.4182 38.8911 89.4119 38.6634C89.5553 38.8542 89.6816 39.0188 89.7907 39.1573L93.4759 43.7128L94.0137 43.662V38.5342C94.0137 38.2265 94.0184 37.9711 94.0277 37.768C94.0309 37.688 94.0683 37.6372 94.14 37.6157L94.776 37.4357L94.7526 37.2003C94.3317 37.2126 93.9841 37.2188 93.7097 37.2188C93.4416 37.2188 93.0924 37.2126 92.6622 37.2003L92.6762 37.4449L93.2748 37.6065C93.3527 37.628 93.3933 37.6741 93.3964 37.7449C93.4026 37.9603 93.4057 38.2172 93.4057 38.5157V40.9204C93.4057 41.1173 93.4089 41.322 93.4151 41.5343C93.2842 41.362 93.1563 41.1989 93.0316 41.045L89.9217 37.2003C89.6473 37.2126 89.3574 37.2188 89.0518 37.2188C88.818 37.2188 88.4828 37.2126 88.0464 37.2003L88.0604 37.4357L88.6871 37.6157C88.7588 37.6372 88.7962 37.688 88.7993 37.768C88.8055 37.9711 88.8086 38.2265 88.8086 38.5342V42.2128C88.8086 42.5758 88.8055 42.882 88.7993 43.1312C88.7962 43.202 88.7541 43.2497 88.673 43.2743L88.0464 43.4451L88.0697 43.6759C88.5031 43.6666 88.8539 43.662 89.122 43.662C89.3932 43.662 89.7393 43.6666 90.1602 43.6759L90.1462 43.4359L89.5476 43.2743Z" fill="#9E3039"/>
<path fill-rule="evenodd" clip-rule="evenodd" d="M96.7729 41.6127L96.4409 42.4758C96.3754 42.6451 96.3239 42.782 96.2865 42.8866C96.2522 42.9882 96.2351 43.0666 96.2351 43.122C96.2351 43.1743 96.2491 43.2143 96.2772 43.242C96.3052 43.2697 96.3489 43.2912 96.4081 43.3066L96.8571 43.4359L96.8711 43.6759C96.419 43.6666 96.0511 43.662 95.7674 43.662C95.4712 43.662 95.133 43.6666 94.7526 43.6759L94.7292 43.4451L95.2296 43.2974C95.3481 43.2636 95.4354 43.2082 95.4915 43.1312C95.5476 43.0512 95.61 42.9312 95.6786 42.7712L98.0075 37.1726L98.5126 37.0987L100.528 42.7112C100.606 42.9266 100.676 43.0728 100.739 43.1497C100.804 43.2236 100.896 43.2774 101.015 43.3112L101.473 43.4451L101.487 43.6759C101.066 43.6666 100.642 43.662 100.215 43.662C99.6506 43.662 99.1003 43.6666 98.564 43.6759L98.5407 43.4451L99.0036 43.3112C99.066 43.2928 99.1112 43.2697 99.1393 43.242C99.1673 43.2143 99.1814 43.1728 99.1814 43.1174C99.1814 43.0559 99.1658 42.9759 99.1346 42.8774C99.1034 42.7758 99.0582 42.6435 98.999 42.4805L98.6903 41.6127H96.7729ZM97.7831 38.9634C97.7269 39.1234 97.6661 39.2896 97.6007 39.4619L96.96 41.1327H98.5219L97.9467 39.4665C97.8875 39.2911 97.8329 39.1234 97.7831 38.9634Z" fill="#9E3039"/>
<path d="M96.9319 36.4757V35.9126H99.5555V36.4757H96.9319Z" fill="#9E3039"/>
<path d="M102.371 43.6759C102.87 43.6666 103.393 43.662 103.942 43.662C104.469 43.662 104.991 43.6666 105.509 43.6759L105.495 43.4451L104.761 43.242C104.679 43.2174 104.637 43.1682 104.634 43.0943C104.628 42.8635 104.625 42.5666 104.625 42.2035V37.6941H105.976L106.28 38.968L106.542 38.9265L106.851 37.2372L106.823 37.2003C106.047 37.2126 105.308 37.2188 104.606 37.2188H103.301C102.6 37.2188 101.866 37.2126 101.099 37.2003L101.066 37.2372L101.188 38.9634L101.45 38.9219L101.88 37.6941H103.227V42.2035C103.227 42.5666 103.223 42.8635 103.217 43.0943C103.214 43.1682 103.174 43.2174 103.096 43.242L102.347 43.4451L102.371 43.6759Z" fill="#9E3039"/>
<path fill-rule="evenodd" clip-rule="evenodd" d="M108.146 41.6127L107.814 42.4758C107.749 42.6451 107.697 42.782 107.66 42.8866C107.626 42.9882 107.609 43.0666 107.609 43.122C107.609 43.1743 107.623 43.2143 107.651 43.242C107.679 43.2697 107.722 43.2912 107.782 43.3066L108.231 43.4359L108.245 43.6759C107.793 43.6666 107.425 43.662 107.141 43.662C106.845 43.662 106.506 43.6666 106.126 43.6759L106.103 43.4451L106.603 43.2974C106.722 43.2636 106.809 43.2082 106.865 43.1312C106.921 43.0512 106.983 42.9312 107.052 42.7712L109.381 37.1726L109.886 37.0987L111.902 42.7112C111.98 42.9266 112.05 43.0728 112.112 43.1497C112.178 43.2236 112.27 43.2774 112.388 43.3112L112.846 43.4451L112.86 43.6759C112.44 43.6666 112.016 43.662 111.588 43.662C111.024 43.662 110.474 43.6666 109.938 43.6759L109.914 43.4451L110.377 43.3112C110.439 43.2928 110.485 43.2697 110.513 43.242C110.541 43.2143 110.555 43.1728 110.555 43.1174C110.555 43.0559 110.539 42.9759 110.508 42.8774C110.477 42.7758 110.432 42.6435 110.372 42.4805L110.064 41.6127H108.146ZM109.157 38.9634C109.1 39.1234 109.04 39.2896 108.974 39.4619L108.333 41.1327H109.895L109.32 39.4665C109.261 39.2911 109.206 39.1234 109.157 38.9634Z" fill="#9E3039"/>
<path d="M108.305 36.4757V35.9126H110.929V36.4757H108.305Z" fill="#9E3039"/>
<path d="M114.563 37.2188C114.036 37.2188 113.554 37.2126 113.118 37.2003L113.132 37.4357L113.763 37.6157C113.835 37.6372 113.872 37.688 113.875 37.768C113.878 37.8726 113.88 37.988 113.88 38.1142C113.883 38.2403 113.885 38.3803 113.885 38.5342V42.8266C113.885 43.1497 113.872 43.4405 113.847 43.699C113.825 43.9574 113.771 44.1897 113.683 44.3959C113.596 44.6021 113.468 44.7851 113.3 44.9451C113.132 45.1082 112.896 45.2559 112.594 45.3882L112.683 45.6606C113.051 45.5929 113.37 45.5129 113.641 45.4205C113.916 45.3282 114.148 45.2221 114.338 45.1021C114.532 44.9821 114.689 44.8451 114.811 44.6913C114.932 44.5405 115.027 44.3682 115.096 44.1744C115.164 43.9805 115.213 43.7605 115.241 43.5143C115.269 43.2682 115.283 42.9928 115.283 42.6882V38.1049L115.286 37.9722L115.289 37.8706L115.292 37.7449C115.298 37.6711 115.341 37.6249 115.419 37.6065L116.045 37.4357L116.022 37.2003C115.588 37.2126 115.102 37.2188 114.563 37.2188Z" fill="#9E3039"/>
<path d="M116.499 37.2003C116.932 37.2126 117.412 37.2188 117.939 37.2188C118.482 37.2188 118.962 37.2126 119.38 37.2003L119.403 37.4357L118.795 37.6065C118.72 37.6249 118.68 37.6711 118.673 37.7449C118.67 37.8557 118.667 37.9757 118.664 38.1049V41.0589C118.664 41.8989 118.792 42.4805 119.048 42.8035C119.303 43.1236 119.718 43.2836 120.292 43.2836C120.856 43.2836 121.278 43.1143 121.559 42.7758C121.843 42.4343 121.984 41.882 121.984 41.1189V38.5157C121.984 38.368 121.983 38.2311 121.98 38.1049C121.977 37.9757 121.974 37.8557 121.97 37.7449C121.967 37.6741 121.927 37.628 121.849 37.6065L121.269 37.4449L121.255 37.2003C121.67 37.2126 122.028 37.2188 122.331 37.2188C122.611 37.2188 122.963 37.2126 123.387 37.2003L123.411 37.4357L122.775 37.6157C122.7 37.6372 122.661 37.688 122.658 37.768C122.655 37.8726 122.652 37.988 122.649 38.1142V40.8789C122.649 41.9374 122.427 42.6974 121.984 43.1589C121.545 43.6174 120.904 43.8467 120.062 43.8467C119.105 43.8467 118.399 43.6282 117.944 43.1912C117.489 42.7512 117.261 42.0481 117.261 41.082V38.5342C117.261 38.3803 117.26 38.2403 117.256 38.1142C117.256 37.988 117.255 37.8726 117.252 37.768C117.249 37.688 117.211 37.6372 117.139 37.6157L116.513 37.4357L116.499 37.2003Z" fill="#9E3039"/>
<path fill-rule="evenodd" clip-rule="evenodd" d="M127.194 42.4758L127.526 41.6127H129.444L129.752 42.4805C129.812 42.6435 129.857 42.7758 129.888 42.8774C129.919 42.9759 129.935 43.0559 129.935 43.1174C129.935 43.1728 129.921 43.2143 129.893 43.242C129.865 43.2697 129.819 43.2928 129.757 43.3112L129.294 43.4451L129.317 43.6759C129.854 43.6666 130.404 43.662 130.968 43.662C131.395 43.662 131.819 43.6666 132.24 43.6759L132.226 43.4451L131.768 43.3112C131.649 43.2774 131.557 43.2236 131.492 43.1497C131.43 43.0728 131.359 42.9266 131.282 42.7112L129.266 37.0987L128.761 37.1726L126.432 42.7712C126.363 42.9312 126.301 43.0512 126.245 43.1312C126.189 43.2082 126.101 43.2636 125.983 43.2974L125.483 43.4451L125.506 43.6759C125.886 43.6666 126.225 43.662 126.521 43.662C126.804 43.662 127.172 43.6666 127.624 43.6759L127.61 43.4359L127.161 43.3066C127.102 43.2912 127.059 43.2697 127.031 43.242C127.002 43.2143 126.988 43.1743 126.988 43.122C126.988 43.0666 127.006 42.9882 127.04 42.8866C127.077 42.782 127.129 42.6451 127.194 42.4758ZM128.354 39.4619C128.419 39.2896 128.48 39.1234 128.536 38.9634C128.586 39.1234 128.641 39.2911 128.7 39.4665L129.275 41.1327H127.713L128.354 39.4619Z" fill="#9E3039"/>
<path d="M135.776 37.6388C135.576 37.5618 135.36 37.5234 135.126 37.5234C134.795 37.5234 134.515 37.6188 134.284 37.8095C134.056 38.0003 133.943 38.2465 133.943 38.548C133.943 38.7296 133.98 38.885 134.055 39.0142C134.13 39.1434 134.229 39.2588 134.354 39.3604C134.479 39.4619 134.621 39.5527 134.78 39.6327C134.942 39.7127 135.109 39.7927 135.28 39.8727C135.47 39.9619 135.662 40.0604 135.855 40.1681C136.049 40.2727 136.222 40.3988 136.374 40.5465C136.527 40.6912 136.65 40.865 136.744 41.0681C136.84 41.2712 136.889 41.5173 136.889 41.8066C136.889 42.4312 136.65 42.922 136.173 43.2789C135.696 43.6359 135.066 43.8143 134.284 43.8143C133.72 43.8143 133.163 43.7266 132.614 43.5513L132.586 43.5097L132.834 41.8481L133.124 41.802L133.475 43.2143C133.699 43.3159 133.949 43.3666 134.223 43.3666C134.619 43.3666 134.937 43.2682 135.177 43.0712C135.42 42.8712 135.542 42.6051 135.542 42.2728C135.542 42.0851 135.505 41.9266 135.43 41.7974C135.355 41.665 135.254 41.5481 135.126 41.4466C134.998 41.342 134.853 41.2496 134.691 41.1696C134.529 41.0896 134.36 41.0096 134.186 40.9296C133.996 40.8373 133.805 40.7404 133.615 40.6389C133.425 40.5373 133.255 40.4142 133.105 40.2696C132.956 40.125 132.834 39.9527 132.741 39.7527C132.647 39.5496 132.6 39.305 132.6 39.0188C132.6 38.4311 132.828 37.9634 133.283 37.6157C133.738 37.268 134.329 37.0941 135.056 37.0941C135.517 37.0941 136.042 37.1649 136.632 37.3064L136.66 37.348L136.374 38.8342L136.117 38.8757L135.776 37.6388Z" fill="#9E3039"/>
<path fill-rule="evenodd" clip-rule="evenodd" d="M143.74 42.8635C144.376 42.2143 144.694 41.3573 144.694 40.2927C144.694 39.2896 144.398 38.4988 143.805 37.9203C143.213 37.3388 142.374 37.048 141.289 37.048C140.161 37.048 139.277 37.3588 138.638 37.9803C137.999 38.5988 137.679 39.4404 137.679 40.505C137.679 41.5266 137.975 42.3374 138.568 42.9374C139.16 43.5343 139.999 43.8328 141.084 43.8328C142.219 43.8328 143.104 43.5097 143.74 42.8635ZM139.756 42.6143C139.419 42.0912 139.25 41.3373 139.25 40.3527C139.25 39.3896 139.399 38.6711 139.695 38.1972C139.994 37.7203 140.473 37.4818 141.13 37.4818C141.81 37.4818 142.312 37.7388 142.636 38.2526C142.961 38.7634 143.123 39.4957 143.123 40.4496C143.123 41.465 142.968 42.2097 142.66 42.6835C142.354 43.1574 141.88 43.3943 141.238 43.3943C140.586 43.3943 140.092 43.1343 139.756 42.6143Z" fill="#9E3039"/>
<path d="M150.76 38.945L150.502 38.9865L150.147 37.6618C149.901 37.5849 149.634 37.5465 149.347 37.5465C148.658 37.5465 148.125 37.8018 147.748 38.3126C147.371 38.8203 147.182 39.4865 147.182 40.3112C147.182 41.1912 147.403 41.8927 147.846 42.4158C148.292 42.9389 148.909 43.2005 149.698 43.2005C150.138 43.2005 150.601 43.1128 151.087 42.9374L151.148 43.2005C150.524 43.619 149.82 43.8282 149.034 43.8282C148.014 43.8282 147.19 43.5251 146.56 42.9189C145.933 42.3128 145.62 41.5143 145.62 40.5235C145.62 39.4681 145.965 38.6326 146.654 38.0172C147.343 37.4018 148.242 37.0941 149.352 37.0941C149.901 37.0941 150.462 37.1572 151.036 37.2834L151.064 37.3295L150.76 38.945Z" fill="#9E3039"/>
<path d="M154.052 42.7158V38.1049C154.055 37.9757 154.058 37.8557 154.061 37.7449C154.067 37.6711 154.108 37.6249 154.183 37.6065L154.81 37.4357L154.786 37.2003C154.356 37.2126 153.87 37.2188 153.327 37.2188C152.8 37.2188 152.32 37.2126 151.887 37.2003L151.901 37.4357L152.527 37.6157C152.599 37.6372 152.636 37.688 152.64 37.768C152.643 37.8726 152.644 37.988 152.644 38.1142C152.647 38.2403 152.649 38.3803 152.649 38.5342V42.2128C152.649 42.3974 152.647 42.5666 152.644 42.7205C152.644 42.8712 152.643 43.0082 152.64 43.1312C152.633 43.2051 152.591 43.2528 152.513 43.2743L151.887 43.4451L151.91 43.6759C152.337 43.6666 152.824 43.662 153.369 43.662C153.896 43.662 154.376 43.6666 154.81 43.6759L154.795 43.4451L154.22 43.2836C154.117 43.2559 154.064 43.202 154.061 43.122C154.058 43.002 154.055 42.8666 154.052 42.7158Z" fill="#9E3039"/>
<path fill-rule="evenodd" clip-rule="evenodd" d="M156.998 41.6127L156.666 42.4758C156.601 42.6451 156.549 42.782 156.512 42.8866C156.478 42.9882 156.46 43.0666 156.46 43.122C156.46 43.1743 156.474 43.2143 156.502 43.242C156.531 43.2697 156.574 43.2912 156.633 43.3066L157.082 43.4359L157.096 43.6759C156.644 43.6666 156.276 43.662 155.993 43.662C155.697 43.662 155.358 43.6666 154.978 43.6759L154.954 43.4451L155.455 43.2974C155.573 43.2636 155.661 43.2082 155.717 43.1312C155.773 43.0512 155.835 42.9312 155.904 42.7712L158.233 37.1726L158.738 37.0987L160.753 42.7112C160.831 42.9266 160.902 43.0728 160.964 43.1497C161.029 43.2236 161.121 43.2774 161.24 43.3112L161.698 43.4451L161.712 43.6759C161.291 43.6666 160.867 43.662 160.44 43.662C159.876 43.662 159.326 43.6666 158.789 43.6759L158.766 43.4451L159.229 43.3112C159.291 43.2928 159.336 43.2697 159.365 43.242C159.393 43.2143 159.407 43.1728 159.407 43.1174C159.407 43.0559 159.391 42.9759 159.36 42.8774C159.329 42.7758 159.283 42.6435 159.224 42.4805L158.916 41.6127H156.998ZM158.008 38.9634C157.952 39.1234 157.891 39.2896 157.826 39.4619L157.185 41.1327H158.747L158.172 39.4665C158.113 39.2911 158.058 39.1234 158.008 38.9634Z" fill="#9E3039"/>
<path d="M157.157 36.4757V35.9126H159.781V36.4757H157.157Z" fill="#9E3039"/>
<path d="M166.702 38.9865L166.959 38.945L167.263 37.3295L167.235 37.2834C166.662 37.1572 166.1 37.0941 165.552 37.0941C164.442 37.0941 163.542 37.4018 162.853 38.0172C162.164 38.6326 161.82 39.4681 161.82 40.5235C161.82 41.5143 162.133 42.3128 162.76 42.9189C163.39 43.5251 164.214 43.8282 165.234 43.8282C166.019 43.8282 166.724 43.619 167.347 43.2005L167.287 42.9374C166.8 43.1128 166.337 43.2005 165.898 43.2005C165.109 43.2005 164.492 42.9389 164.046 42.4158C163.603 41.8927 163.382 41.1912 163.382 40.3112C163.382 39.4865 163.57 38.8203 163.948 38.3126C164.325 37.8018 164.858 37.5465 165.547 37.5465C165.834 37.5465 166.1 37.5849 166.347 37.6618L166.702 38.9865Z" fill="#9E3039"/>
<path d="M170.252 42.7158C170.255 42.8666 170.258 43.002 170.261 43.122C170.264 43.202 170.317 43.2559 170.42 43.2836L170.995 43.4451L171.009 43.6759C170.576 43.6666 170.096 43.662 169.569 43.662C169.023 43.662 168.537 43.6666 168.11 43.6759L168.086 43.4451L168.713 43.2743C168.791 43.2528 168.833 43.2051 168.839 43.1312C168.842 43.0082 168.844 42.8712 168.844 42.7205C168.847 42.5666 168.849 42.3974 168.849 42.2128V38.5342C168.849 38.3803 168.847 38.2403 168.844 38.1142C168.844 37.988 168.842 37.8726 168.839 37.768C168.836 37.688 168.799 37.6372 168.727 37.6157L168.1 37.4357L168.086 37.2003C168.52 37.2126 169 37.2188 169.527 37.2188C170.069 37.2188 170.556 37.2126 170.986 37.2003L171.009 37.4357L170.383 37.6065C170.308 37.6249 170.267 37.6711 170.261 37.7449C170.258 37.8557 170.255 37.9757 170.252 38.1049V42.7158Z" fill="#9E3039"/>
<path d="M173.198 37.2188C172.671 37.2188 172.189 37.2126 171.753 37.2003L171.767 37.4357L172.398 37.6157C172.47 37.6372 172.507 37.688 172.51 37.768C172.514 37.8726 172.515 37.988 172.515 38.1142C172.518 38.2403 172.52 38.3803 172.52 38.5342V42.8266C172.52 43.1497 172.507 43.4405 172.482 43.699C172.461 43.9574 172.406 44.1897 172.319 44.3959C172.231 44.6021 172.104 44.7851 171.935 44.9451C171.767 45.1082 171.531 45.2559 171.229 45.3882L171.318 45.6606C171.686 45.5929 172.005 45.5129 172.277 45.4205C172.551 45.3282 172.783 45.2221 172.973 45.1021C173.167 44.9821 173.324 44.8451 173.446 44.6913C173.567 44.5405 173.662 44.3682 173.731 44.1744C173.8 43.9805 173.848 43.7605 173.876 43.5143C173.904 43.2682 173.918 42.9928 173.918 42.6882V38.1049C173.921 37.9757 173.924 37.8557 173.927 37.7449C173.934 37.6711 173.976 37.6249 174.054 37.6065L174.68 37.4357L174.657 37.2003C174.224 37.2126 173.737 37.2188 173.198 37.2188Z" fill="#9E3039"/>
<path fill-rule="evenodd" clip-rule="evenodd" d="M176.677 41.6127L176.345 42.4758C176.28 42.6451 176.228 42.782 176.191 42.8866C176.157 42.9882 176.139 43.0666 176.139 43.122C176.139 43.1743 176.154 43.2143 176.182 43.242C176.21 43.2697 176.253 43.2912 176.313 43.3066L176.761 43.4359L176.776 43.6759C176.323 43.6666 175.956 43.662 175.672 43.662C175.376 43.662 175.037 43.6666 174.657 43.6759L174.634 43.4451L175.134 43.2974C175.253 43.2636 175.34 43.2082 175.396 43.1312C175.452 43.0512 175.514 42.9312 175.583 42.7712L177.912 37.1726L178.417 37.0987L180.433 42.7112C180.511 42.9266 180.581 43.0728 180.643 43.1497C180.709 43.2236 180.801 43.2774 180.919 43.3112L181.377 43.4451L181.391 43.6759C180.97 43.6666 180.546 43.662 180.119 43.662C179.555 43.662 179.005 43.6666 178.468 43.6759L178.445 43.4451L178.908 43.3112C178.97 43.2928 179.016 43.2697 179.044 43.242C179.072 43.2143 179.086 43.1728 179.086 43.1174C179.086 43.0559 179.07 42.9759 179.039 42.8774C179.008 42.7758 178.963 42.6435 178.903 42.4805L178.595 41.6127H176.677ZM177.687 38.9634C177.631 39.1234 177.571 39.2896 177.505 39.4619L176.864 41.1327H178.426L177.851 39.4665C177.792 39.2911 177.737 39.1234 177.687 38.9634Z" fill="#9E3039"/>
<path fill-rule="evenodd" clip-rule="evenodd" d="M128.719 52.446C128.719 53.5107 128.401 54.3676 127.765 55.0169C127.129 55.6631 126.244 55.9862 125.109 55.9862C124.024 55.9862 123.185 55.6877 122.593 55.0907C122 54.4907 121.704 53.6799 121.704 52.6584C121.704 51.5937 122.024 50.7521 122.663 50.1337C123.302 49.5121 124.186 49.2013 125.315 49.2013C126.4 49.2013 127.238 49.4921 127.831 50.0737C128.423 50.6521 128.719 51.4429 128.719 52.446ZM123.276 52.506C123.276 53.4907 123.444 54.2446 123.781 54.7677C124.117 55.2877 124.612 55.5477 125.263 55.5477C125.905 55.5477 126.379 55.3107 126.685 54.8369C126.994 54.363 127.148 53.6184 127.148 52.603C127.148 51.6491 126.986 50.9168 126.661 50.406C126.337 49.8921 125.835 49.6352 125.156 49.6352C124.498 49.6352 124.019 49.8737 123.72 50.3506C123.424 50.8245 123.276 51.5429 123.276 52.506Z" fill="#9E3039"/>
<path d="M68.8213 49.6767C69.0551 49.6767 69.2718 49.7152 69.4714 49.7921L69.8127 51.0291L70.07 50.9875L70.3552 49.5013L70.3272 49.4598C69.7379 49.3183 69.2126 49.2475 68.7512 49.2475C68.0247 49.2475 67.4339 49.4213 66.9787 49.769C66.5235 50.1167 66.2959 50.5844 66.2959 51.1722C66.2959 51.4583 66.3427 51.7029 66.4362 51.906C66.5298 52.106 66.6514 52.2783 66.801 52.423C66.9507 52.5676 67.1206 52.6907 67.3108 52.7922C67.5009 52.8937 67.6911 52.9907 67.8813 53.083C68.0559 53.163 68.2243 53.243 68.3864 53.323C68.5485 53.403 68.6935 53.4953 68.8213 53.5999C68.9491 53.7015 69.0505 53.8184 69.1253 53.9507C69.2001 54.0799 69.2375 54.2384 69.2375 54.4261C69.2375 54.7584 69.1159 55.0246 68.8727 55.2246C68.6327 55.4215 68.3147 55.52 67.9187 55.52C67.6444 55.52 67.3949 55.4692 67.1705 55.3677L66.8197 53.9553L66.5298 54.0015L66.2819 55.6631L66.31 55.7046C66.8587 55.88 67.4152 55.9677 67.9795 55.9677C68.7621 55.9677 69.3918 55.7892 69.8689 55.4323C70.3459 55.0754 70.5844 54.5846 70.5844 53.9599C70.5844 53.6707 70.5361 53.4245 70.4394 53.2215C70.3459 53.0184 70.2227 52.8445 70.07 52.6999C69.9172 52.5522 69.7442 52.426 69.5508 52.3214C69.3576 52.2137 69.1658 52.1153 68.9756 52.026C68.8042 51.946 68.6374 51.866 68.4752 51.786C68.3162 51.706 68.1744 51.6152 68.0497 51.5137C67.925 51.4122 67.8252 51.2968 67.7504 51.1675C67.6755 51.0383 67.6381 50.8829 67.6381 50.7014C67.6381 50.3998 67.7519 50.1537 67.9795 49.9629C68.2102 49.7721 68.4908 49.6767 68.8213 49.6767Z" fill="#9E3039"/>
<path fill-rule="evenodd" clip-rule="evenodd" d="M18.155 54.6292L18.487 53.7661H20.4045L20.7131 54.6338C20.7723 54.7969 20.8176 54.9292 20.8487 55.0307C20.8799 55.1292 20.8955 55.2092 20.8955 55.2707C20.8955 55.3261 20.8815 55.3677 20.8534 55.3954C20.8253 55.4231 20.7801 55.4461 20.7178 55.4646L20.2548 55.5984L20.2782 55.8292C20.8144 55.82 21.3647 55.8154 21.929 55.8154C22.3562 55.8154 22.7802 55.82 23.2011 55.8292L23.187 55.5984L22.7287 55.4646C22.6103 55.4308 22.5183 55.3769 22.4528 55.3031C22.3905 55.2261 22.3203 55.08 22.2424 54.8646L20.2267 49.2521L19.7217 49.3259L17.3927 54.9246C17.3241 55.0846 17.2618 55.2046 17.2057 55.2846C17.1495 55.3615 17.0622 55.4169 16.9438 55.4508L16.4434 55.5984L16.4668 55.8292C16.8471 55.82 17.1854 55.8154 17.4816 55.8154C17.7653 55.8154 18.1332 55.82 18.5853 55.8292L18.5712 55.5892L18.1223 55.46C18.063 55.4446 18.0194 55.4231 17.9913 55.3954C17.9633 55.3677 17.9492 55.3277 17.9492 55.2754C17.9492 55.22 17.9664 55.1415 18.0007 55.04C18.0381 54.9354 18.0895 54.7984 18.155 54.6292ZM19.3148 51.6152C19.3803 51.4429 19.4411 51.2768 19.4972 51.1168C19.5471 51.2768 19.6016 51.4445 19.6609 51.6199L20.2361 53.2861H18.6741L19.3148 51.6152Z" fill="#9E3039"/>
<path d="M13.5205 54.3199V50.3737C13.5236 50.1675 13.5267 50.009 13.5299 49.8983C13.5361 49.8244 13.5766 49.7783 13.6514 49.7598L14.2313 49.589L14.208 49.3536C13.8089 49.3659 13.3381 49.3721 12.7956 49.3721C12.2687 49.3721 11.8042 49.3659 11.402 49.3536L11.416 49.589L11.9959 49.769C12.0676 49.7906 12.105 49.8413 12.1082 49.9213C12.1113 50.026 12.1128 50.1414 12.1128 50.2675C12.116 50.3937 12.1175 50.5337 12.1175 50.6875V54.3661C12.1175 54.5507 12.116 54.72 12.1128 54.8738C12.1128 55.0246 12.1113 55.1615 12.1082 55.2846C12.1019 55.3584 12.0598 55.4061 11.9819 55.4277L11.402 55.5984L11.4254 55.8292C11.8213 55.82 12.2516 55.8154 12.7161 55.8154H13.8759C14.6117 55.8154 15.3646 55.82 16.1347 55.8292L16.1675 55.7969L16.2844 53.9738L15.9991 54.0153L15.3584 55.3261H13.5299C13.5236 54.9938 13.5205 54.6584 13.5205 54.3199Z" fill="#9E3039"/>
<path d="M25.6563 55.8154C25.1076 55.8154 24.5838 55.82 24.0849 55.8292L24.0616 55.5984L24.8098 55.3954C24.8878 55.3708 24.9283 55.3215 24.9314 55.2477C24.9376 55.0169 24.9408 54.72 24.9408 54.3569V49.8475H23.5939L23.1636 51.0752L22.9018 51.1168L22.7802 49.3906L22.8129 49.3536C23.5799 49.3659 24.3141 49.3721 25.0156 49.3721H26.3204C27.0218 49.3721 27.7607 49.3659 28.5371 49.3536L28.5651 49.3906L28.2565 51.0798L27.9946 51.1214L27.6906 49.8475H26.3391V54.3569C26.3391 54.72 26.3422 55.0169 26.3484 55.2477C26.3515 55.3215 26.3936 55.3708 26.4747 55.3954L27.2089 55.5984L27.2229 55.8292C26.7054 55.82 26.1832 55.8154 25.6563 55.8154Z" fill="#9E3039"/>
<path d="M32.4467 54.0246C32.3968 53.8615 32.3423 53.6922 32.283 53.5168L31.2495 50.5537C31.1903 50.3875 31.145 50.2552 31.1139 50.1567C31.0827 50.0552 31.0671 49.9737 31.0671 49.9121C31.0671 49.8567 31.0811 49.8152 31.1092 49.7875C31.1373 49.7598 31.1825 49.7367 31.2448 49.7183L31.7031 49.589L31.6797 49.3536C31.1435 49.3659 30.5932 49.3721 30.0289 49.3721C29.6049 49.3721 29.1809 49.3659 28.7569 49.3536L28.7756 49.589L29.2292 49.7183C29.3477 49.7552 29.4381 49.8121 29.5004 49.889C29.5659 49.9629 29.6376 50.106 29.7156 50.3183L31.7218 55.8846L32.2129 55.8385L34.5091 50.2629C34.5777 50.0998 34.64 49.9798 34.6961 49.9029C34.7523 49.826 34.838 49.769 34.9534 49.7321L35.4584 49.589L35.4304 49.3536C35.0531 49.3659 34.7164 49.3721 34.4202 49.3721C34.1365 49.3721 33.7686 49.3659 33.3166 49.3536L33.3306 49.5983L33.7749 49.7229C33.8341 49.7383 33.8777 49.7598 33.9058 49.7875C33.937 49.8152 33.9526 49.8552 33.9526 49.9075C33.9526 49.966 33.9339 50.046 33.8965 50.1475C33.8622 50.2491 33.8138 50.386 33.7515 50.5583L32.6244 53.5215C32.5621 53.6938 32.5028 53.8615 32.4467 54.0246Z" fill="#9E3039"/>
<path d="M37.764 54.8692C37.7671 55.02 37.7702 55.1554 37.7733 55.2754C37.7765 55.3554 37.8295 55.4092 37.9324 55.4369L38.5076 55.5984L38.5216 55.8292C38.0882 55.82 37.6081 55.8154 37.0812 55.8154C36.5356 55.8154 36.0492 55.82 35.6221 55.8292L35.5987 55.5984L36.2254 55.4277C36.3033 55.4061 36.3454 55.3584 36.3517 55.2846C36.3548 55.1615 36.3563 55.0246 36.3563 54.8738C36.3595 54.72 36.361 54.5507 36.361 54.3661V50.6875C36.361 50.5337 36.3595 50.3937 36.3563 50.2675C36.3563 50.1414 36.3548 50.026 36.3517 49.9213C36.3485 49.8413 36.3111 49.7906 36.2394 49.769L35.6128 49.589L35.5987 49.3536C36.0321 49.3659 36.5122 49.3721 37.0391 49.3721C37.5816 49.3721 38.068 49.3659 38.4982 49.3536L38.5216 49.589L37.8949 49.7598C37.8201 49.7783 37.7796 49.8244 37.7733 49.8983C37.7702 50.009 37.7671 50.129 37.764 50.2583V54.8692Z" fill="#9E3039"/>
<path fill-rule="evenodd" clip-rule="evenodd" d="M40.3782 54.6292L40.7103 53.7661H42.6277L42.9363 54.6338C42.9956 54.7969 43.0408 54.9292 43.0719 55.0307C43.1031 55.1292 43.1187 55.2092 43.1187 55.2707C43.1187 55.3261 43.1047 55.3677 43.0766 55.3954C43.0486 55.4231 43.0033 55.4461 42.941 55.4646L42.478 55.5984L42.5014 55.8292C43.0376 55.82 43.5879 55.8154 44.1522 55.8154C44.5794 55.8154 45.0034 55.82 45.4243 55.8292L45.4102 55.5984L44.9519 55.4646C44.8335 55.4308 44.7415 55.3769 44.676 55.3031C44.6137 55.2261 44.5435 55.08 44.4656 54.8646L42.45 49.2521L41.9449 49.3259L39.6159 54.9246C39.5473 55.0846 39.485 55.2046 39.4289 55.2846C39.3727 55.3615 39.2854 55.4169 39.167 55.4508L38.6666 55.5984L38.69 55.8292C39.0703 55.82 39.4086 55.8154 39.7048 55.8154C39.9885 55.8154 40.3564 55.82 40.8085 55.8292L40.7944 55.5892L40.3455 55.46C40.2862 55.4446 40.2426 55.4231 40.2145 55.3954C40.1865 55.3677 40.1724 55.3277 40.1724 55.2754C40.1724 55.22 40.1896 55.1415 40.2239 55.04C40.2613 54.9354 40.3127 54.7984 40.3782 54.6292ZM41.538 51.6152C41.6035 51.4429 41.6643 51.2768 41.7204 51.1168C41.7703 51.2768 41.8248 51.4445 41.8841 51.6199L42.4593 53.2861H40.8973L41.538 51.6152Z" fill="#9E3039"/>
<path d="M47.0237 55.2661C47.0268 55.3554 47.0658 55.4092 47.1406 55.4277L47.7392 55.5892L47.7532 55.8292C47.3323 55.82 46.9863 55.8154 46.715 55.8154C46.4469 55.8154 46.0961 55.82 45.6628 55.8292L45.6394 55.5984L46.2661 55.4277C46.3471 55.4031 46.3892 55.3554 46.3923 55.2846C46.3986 55.0354 46.4017 54.7292 46.4017 54.3661V50.6875C46.4017 50.3798 46.3986 50.1244 46.3923 49.9213C46.3892 49.8413 46.3518 49.7906 46.2801 49.769L45.6534 49.589L45.6394 49.3536C46.0759 49.3659 46.411 49.3721 46.6449 49.3721C46.9504 49.3721 47.2403 49.3659 47.5147 49.3536L50.6246 53.1984C50.7494 53.3522 50.8772 53.5153 51.0081 53.6876C51.0019 53.4753 50.9988 53.2707 50.9988 53.0738V50.6691C50.9988 50.3706 50.9957 50.1137 50.9894 49.8983C50.9863 49.8275 50.9458 49.7813 50.8678 49.7598L50.2692 49.5983L50.2552 49.3536C50.6854 49.3659 51.0346 49.3721 51.3028 49.3721C51.5771 49.3721 51.9247 49.3659 52.3456 49.3536L52.369 49.589L51.733 49.769C51.6613 49.7906 51.6239 49.8413 51.6208 49.9213C51.6114 50.1244 51.6067 50.3798 51.6067 50.6875V55.8154L51.0689 55.8661L47.3838 51.3106C47.2746 51.1722 47.1484 51.0075 47.005 50.8168C47.0112 51.0445 47.0143 51.2537 47.0143 51.4445V54.3661C47.0143 54.7292 47.0174 55.0292 47.0237 55.2661Z" fill="#9E3039"/>
<path d="M57.4525 54.8692V50.2583C57.4556 50.129 57.4587 50.009 57.4618 49.8983C57.4681 49.8244 57.5086 49.7783 57.5834 49.7598L58.2101 49.589L58.1867 49.3536C57.7565 49.3659 57.2701 49.3721 56.7276 49.3721C56.2007 49.3721 55.7206 49.3659 55.2872 49.3536L55.3013 49.589L55.9279 49.769C55.9996 49.7906 56.037 49.8413 56.0402 49.9213C56.0433 50.026 56.0448 50.1414 56.0448 50.2675C56.0479 50.3937 56.0495 50.5337 56.0495 50.6875V54.3661C56.0495 54.5507 56.0479 54.72 56.0448 54.8738C56.0448 55.0246 56.0433 55.1615 56.0402 55.2846C56.0339 55.3584 55.9918 55.4061 55.9139 55.4277L55.2872 55.5984L55.3106 55.8292C55.7377 55.82 56.2241 55.8154 56.7697 55.8154C57.2966 55.8154 57.7767 55.82 58.2101 55.8292L58.1961 55.5984L57.6208 55.4369C57.518 55.4092 57.465 55.3554 57.4618 55.2754C57.4587 55.1554 57.4556 55.02 57.4525 54.8692Z" fill="#9E3039"/>
<path d="M60.2959 55.2661C60.299 55.3554 60.3379 55.4092 60.4128 55.4277L61.0114 55.5892L61.0254 55.8292C60.6045 55.82 60.2584 55.8154 59.9872 55.8154C59.7191 55.8154 59.3683 55.82 58.935 55.8292L58.9116 55.5984L59.5382 55.4277C59.6193 55.4031 59.6614 55.3554 59.6645 55.2846C59.6708 55.0354 59.6739 54.7292 59.6739 54.3661V50.6875C59.6739 50.3798 59.6708 50.1244 59.6645 49.9213C59.6614 49.8413 59.624 49.7906 59.5523 49.769L58.9256 49.589L58.9116 49.3536C59.3481 49.3659 59.6832 49.3721 59.9171 49.3721C60.2226 49.3721 60.5125 49.3659 60.7869 49.3536L63.8968 53.1984C64.0216 53.3522 64.1494 53.5153 64.2803 53.6876C64.2741 53.4753 64.271 53.2707 64.271 53.0738V50.6691C64.271 50.3706 64.2679 50.1137 64.2616 49.8983C64.2585 49.8275 64.218 49.7813 64.14 49.7598L63.5414 49.5983L63.5274 49.3536C63.9576 49.3659 64.3068 49.3721 64.575 49.3721C64.8493 49.3721 65.1969 49.3659 65.6178 49.3536L65.6412 49.589L65.0052 49.769C64.9335 49.7906 64.8961 49.8413 64.893 49.9213C64.8836 50.1244 64.8789 50.3798 64.8789 50.6875V55.8154L64.3411 55.8661L60.656 51.3106C60.5468 51.1722 60.4206 51.0075 60.2772 50.8168C60.2834 51.0445 60.2865 51.2537 60.2865 51.4445V54.3661C60.2865 54.7292 60.2896 55.0292 60.2959 55.2661Z" fill="#9E3039"/>
<path d="M71.1456 49.3536C71.5789 49.3659 72.0591 49.3721 72.586 49.3721C73.1285 49.3721 73.6086 49.3659 74.0264 49.3536L74.0497 49.589L73.4418 49.7598C73.367 49.7783 73.3264 49.8244 73.3202 49.8983C73.3171 50.009 73.314 50.129 73.3108 50.2583V53.2122C73.3108 54.0522 73.4387 54.6338 73.6943 54.9569C73.95 55.2769 74.3646 55.4369 74.9383 55.4369C75.5026 55.4369 75.9251 55.2677 76.2057 54.9292C76.4894 54.5876 76.6312 54.0353 76.6312 53.2722V50.6691C76.6312 50.5214 76.6297 50.3844 76.6265 50.2583L76.6239 50.1518C76.6217 50.0625 76.6194 49.978 76.6172 49.8983C76.6141 49.8275 76.5735 49.7813 76.4956 49.7598L75.9157 49.5983L75.9017 49.3536C76.3163 49.3659 76.6749 49.3721 76.9773 49.3721C77.2579 49.3721 77.6102 49.3659 78.0342 49.3536L78.0576 49.589L77.4216 49.769C77.3467 49.7906 77.3078 49.8413 77.3047 49.9213C77.3015 50.026 77.2984 50.1414 77.2953 50.2675V53.0322C77.2953 54.0907 77.0739 54.8507 76.6312 55.3123C76.1916 55.7708 75.5509 56 74.7091 56C73.752 56 73.0458 55.7815 72.5906 55.3446C72.1355 54.9046 71.9079 54.2015 71.9079 53.2353V50.6875C71.9079 50.5337 71.9063 50.3937 71.9032 50.2675C71.9032 50.1414 71.9016 50.026 71.8985 49.9213C71.8954 49.8413 71.858 49.7906 71.7863 49.769L71.1596 49.589L71.1456 49.3536Z" fill="#9E3039"/>
<path fill-rule="evenodd" clip-rule="evenodd" d="M80.8121 54.8646V52.8245L81.0085 52.8291C81.0584 52.8322 81.0989 52.8399 81.1301 52.8522C81.1644 52.8614 81.1956 52.8784 81.2236 52.903C81.2548 52.9245 81.2844 52.9584 81.3125 53.0045C81.3248 53.0227 81.3383 53.0428 81.353 53.0648C81.3756 53.0987 81.4011 53.137 81.4294 53.1799C81.5853 53.4261 81.7334 53.6753 81.8737 53.9276C82.0171 54.1799 82.1559 54.4184 82.2899 54.643C82.424 54.8677 82.5502 55.0692 82.6687 55.2477C82.7903 55.4261 82.9228 55.5708 83.0662 55.6815C83.1629 55.7554 83.2736 55.8123 83.3983 55.8523C83.523 55.8923 83.7412 55.9123 84.053 55.9123C84.4458 55.9123 84.795 55.8908 85.1005 55.8477L85.0818 55.6123C85.0039 55.5969 84.9322 55.5815 84.8667 55.5661C84.8044 55.5477 84.7451 55.5261 84.689 55.5015C84.6329 55.4769 84.5783 55.4477 84.5253 55.4138C84.4754 55.38 84.4224 55.34 84.3663 55.2938C84.2634 55.1923 84.1528 55.0538 84.0343 54.8784C83.9189 54.703 83.7895 54.5015 83.6461 54.2738C83.5027 54.043 83.3593 53.8092 83.2159 53.5722C83.0756 53.3353 82.8745 53.0261 82.6126 52.6445C83.0865 52.4937 83.445 52.2783 83.6882 51.9983C83.9345 51.7153 84.0577 51.3445 84.0577 50.886C84.0577 50.3783 83.8566 49.9921 83.4544 49.7275C83.0553 49.4629 82.4552 49.3306 81.6539 49.3306C81.5822 49.3306 81.4824 49.3321 81.3546 49.3352C81.2299 49.3383 81.074 49.3429 80.8869 49.349C80.6812 49.3552 80.5066 49.3613 80.3632 49.3675C80.2197 49.3706 80.0997 49.3721 80.0031 49.3721C79.5447 49.3721 79.0974 49.3659 78.6609 49.3536L78.6749 49.589L79.3016 49.769C79.3733 49.7906 79.4107 49.8413 79.4138 49.9213C79.4169 50.026 79.4185 50.1414 79.4185 50.2675C79.4216 50.3937 79.4232 50.5337 79.4232 50.6875V54.3661C79.4232 54.5507 79.4216 54.72 79.4185 54.8738C79.4185 55.0246 79.4169 55.1615 79.4138 55.2846C79.4076 55.3584 79.3655 55.4061 79.2875 55.4277L78.6609 55.5984L78.6843 55.8292C79.1114 55.82 79.5977 55.8154 80.1434 55.8154C80.6547 55.8154 81.0834 55.82 81.4294 55.8292L81.4154 55.5984L80.929 55.4415C80.8604 55.42 80.8246 55.36 80.8215 55.2615L80.8174 55.0973L80.8141 54.9572L80.8121 54.8646ZM81.2611 52.4368C81.127 52.4368 80.9773 52.4322 80.8121 52.423V49.8106C80.915 49.7983 81.007 49.789 81.088 49.7829C81.1722 49.7767 81.2502 49.7737 81.3219 49.7737C81.7396 49.7737 82.0467 49.8783 82.2431 50.0875C82.4427 50.2937 82.5424 50.6229 82.5424 51.0752C82.5424 51.5429 82.4396 51.8876 82.2338 52.1091C82.028 52.3276 81.7038 52.4368 81.2611 52.4368Z" fill="#9E3039"/>
<path d="M86.6579 49.3721H87.841C88.5986 49.3721 89.3843 49.3659 90.198 49.3536L90.2308 49.3906L89.9408 50.9275L89.6883 50.9645L89.389 49.8429H87.5791V52.2937H87.8317C88.1029 52.2937 88.3944 52.2907 88.7062 52.2845C88.7873 52.2814 88.8403 52.2399 88.8652 52.1599L89.0336 51.5276L89.3422 51.5137C89.3329 51.9599 89.3282 52.2937 89.3282 52.5153C89.3282 52.7307 89.3329 53.0599 89.3422 53.503L89.0336 53.5261L88.8605 52.8753C88.8356 52.7922 88.7873 52.7491 88.7156 52.7461C88.3976 52.7399 88.1014 52.7368 87.827 52.7368H87.5791V54.3199C87.5791 54.6584 87.5823 54.9938 87.5885 55.3261H89.4591L90.0484 54.1122L90.3337 54.0707L90.2214 55.7969L90.1887 55.8292C89.4124 55.82 88.6563 55.8154 87.9205 55.8154H86.6812C86.2791 55.8154 85.8644 55.82 85.4373 55.8292L85.4139 55.5984L86.0406 55.4277C86.1185 55.4061 86.1606 55.3584 86.1668 55.2846C86.1699 55.1615 86.1715 55.0246 86.1715 54.8738C86.1746 54.72 86.1762 54.5507 86.1762 54.3661V50.6875C86.1762 50.5337 86.1746 50.3937 86.1715 50.2675C86.1715 50.1414 86.1699 50.026 86.1668 49.9213C86.1637 49.8413 86.1263 49.7906 86.0546 49.769L85.4279 49.589L85.4139 49.3536C85.8504 49.3659 86.265 49.3721 86.6579 49.3721Z" fill="#9E3039"/>
<path fill-rule="evenodd" clip-rule="evenodd" d="M93.336 54.8646V52.8245L93.5325 52.8291C93.5823 52.8322 93.6229 52.8399 93.6541 52.8522C93.6883 52.8614 93.7195 52.8784 93.7476 52.903C93.7788 52.9245 93.8084 52.9584 93.8364 53.0045C93.8676 53.0507 93.9066 53.1091 93.9534 53.1799C94.1092 53.4261 94.2573 53.6753 94.3976 53.9276C94.541 54.1799 94.6798 54.4184 94.8139 54.643C94.9479 54.8677 95.0742 55.0692 95.1927 55.2477C95.3142 55.4261 95.4468 55.5708 95.5902 55.6815C95.6868 55.7554 95.7975 55.8123 95.9222 55.8523C96.0469 55.8923 96.2652 55.9123 96.5769 55.9123C96.9698 55.9123 97.3189 55.8908 97.6245 55.8477L97.6058 55.6123C97.5278 55.5969 97.4561 55.5815 97.3907 55.5661C97.3283 55.5477 97.2691 55.5261 97.2129 55.5015C97.1568 55.4769 97.1023 55.4477 97.0493 55.4138C96.9994 55.38 96.9464 55.34 96.8903 55.2938C96.7874 55.1923 96.6767 55.0538 96.5582 54.8784C96.4429 54.703 96.3135 54.5015 96.1701 54.2738C96.0266 54.043 95.8832 53.8092 95.7398 53.5722C95.5995 53.3353 95.3984 53.0261 95.1365 52.6445C95.6104 52.4937 95.969 52.2783 96.2122 51.9983C96.4585 51.7153 96.5816 51.3445 96.5816 50.886C96.5816 50.3783 96.3805 49.9921 95.9783 49.7275C95.5793 49.4629 94.9791 49.3306 94.1778 49.3306C94.1061 49.3306 94.0064 49.3321 93.8785 49.3352C93.7538 49.3383 93.5979 49.3429 93.4109 49.349C93.2051 49.3552 93.0305 49.3613 92.8871 49.3675C92.7437 49.3706 92.6236 49.3721 92.527 49.3721C92.0687 49.3721 91.6213 49.3659 91.1848 49.3536L91.1988 49.589L91.8255 49.769C91.8972 49.7906 91.9346 49.8413 91.9377 49.9213C91.9409 50.026 91.9424 50.1414 91.9424 50.2675C91.9455 50.3937 91.9471 50.5337 91.9471 50.6875V54.3661C91.9471 54.5507 91.9455 54.72 91.9424 54.8738C91.9424 55.0246 91.9409 55.1615 91.9377 55.2846C91.9315 55.3584 91.8894 55.4061 91.8115 55.4277L91.1848 55.5984L91.2082 55.8292C91.6353 55.82 92.1217 55.8154 92.6673 55.8154C93.1786 55.8154 93.6073 55.82 93.9534 55.8292L93.9393 55.5984L93.453 55.4415C93.3844 55.42 93.3485 55.36 93.3454 55.2615C93.3423 55.1415 93.3392 55.0092 93.336 54.8646ZM93.785 52.4368C93.6509 52.4368 93.5013 52.4322 93.336 52.423V49.8106C93.4389 49.7983 93.5309 49.789 93.612 49.7829C93.6961 49.7767 93.7741 49.7737 93.8458 49.7737C94.2636 49.7737 94.5707 49.8783 94.7671 50.0875C94.9666 50.2937 95.0664 50.6229 95.0664 51.0752C95.0664 51.5429 94.9635 51.8876 94.7577 52.1091C94.552 52.3276 94.2277 52.4368 93.785 52.4368Z" fill="#9E3039"/>
<path d="M101.141 49.7921C100.942 49.7152 100.725 49.6767 100.491 49.6767C100.161 49.6767 99.8802 49.7721 99.6495 49.9629C99.4219 50.1537 99.3081 50.3998 99.3081 50.7014C99.3081 50.8829 99.3455 51.0383 99.4203 51.1675C99.4951 51.2968 99.5949 51.4122 99.7196 51.5137C99.8443 51.6152 99.9862 51.706 100.145 51.786C100.307 51.866 100.474 51.946 100.646 52.026C100.836 52.1153 101.027 52.2137 101.221 52.3214C101.414 52.426 101.587 52.5522 101.74 52.6999C101.893 52.8445 102.016 53.0184 102.109 53.2215C102.206 53.4245 102.254 53.6707 102.254 53.9599C102.254 54.5846 102.016 55.0754 101.539 55.4323C101.062 55.7892 100.432 55.9677 99.6495 55.9677C99.0851 55.9677 98.5286 55.88 97.9799 55.7046L97.9519 55.6631L98.1997 54.0015L98.4897 53.9553L98.8404 55.3677C99.0649 55.4692 99.3143 55.52 99.5887 55.52C99.9846 55.52 100.303 55.4215 100.543 55.2246C100.786 55.0246 100.907 54.7584 100.907 54.4261C100.907 54.2384 100.87 54.0799 100.795 53.9507C100.72 53.8184 100.619 53.7015 100.491 53.5999C100.363 53.4953 100.218 53.403 100.056 53.323C99.8942 53.243 99.7258 53.163 99.5512 53.083C99.3611 52.9907 99.1709 52.8937 98.9807 52.7922C98.7905 52.6907 98.6206 52.5676 98.471 52.423C98.3213 52.2783 98.1997 52.106 98.1062 51.906C98.0126 51.7029 97.9659 51.4583 97.9659 51.1722C97.9659 50.5844 98.1935 50.1167 98.6487 49.769C99.1039 49.4213 99.6947 49.2475 100.421 49.2475C100.883 49.2475 101.408 49.3183 101.997 49.4598L102.025 49.5013L101.74 50.9875L101.483 51.0291L101.141 49.7921Z" fill="#9E3039"/>
<path fill-rule="evenodd" clip-rule="evenodd" d="M106.169 54.6292L106.501 53.7661H108.418L108.727 54.6338C108.786 54.7969 108.831 54.9292 108.862 55.0307C108.894 55.1292 108.909 55.2092 108.909 55.2707C108.909 55.3261 108.895 55.3677 108.867 55.3954C108.839 55.4231 108.794 55.4461 108.731 55.4646L108.268 55.5984L108.292 55.8292C108.828 55.82 109.378 55.8154 109.943 55.8154C110.37 55.8154 110.794 55.82 111.215 55.8292L111.201 55.5984L110.742 55.4646C110.624 55.4308 110.532 55.3769 110.466 55.3031C110.404 55.2261 110.334 55.08 110.256 54.8646L108.24 49.2521L107.735 49.3259L105.406 54.9246C105.338 55.0846 105.275 55.2046 105.219 55.2846C105.163 55.3615 105.076 55.4169 104.957 55.4508L104.457 55.5984L104.48 55.8292C104.861 55.82 105.199 55.8154 105.495 55.8154C105.779 55.8154 106.147 55.82 106.599 55.8292L106.585 55.5892L106.136 55.46C106.077 55.4446 106.033 55.4231 106.005 55.3954C105.977 55.3677 105.963 55.3277 105.963 55.2754C105.963 55.22 105.98 55.1415 106.014 55.04C106.052 54.9354 106.103 54.7984 106.169 54.6292ZM107.328 51.6152C107.394 51.4429 107.455 51.2768 107.511 51.1168C107.561 51.2768 107.615 51.4445 107.674 51.6199L108.25 53.2861H106.688L107.328 51.6152Z" fill="#9E3039"/>
<path d="M114.75 49.7921C114.551 49.7152 114.334 49.6767 114.1 49.6767C113.77 49.6767 113.489 49.7721 113.258 49.9629C113.031 50.1537 112.917 50.3998 112.917 50.7014C112.917 50.8829 112.954 51.0383 113.029 51.1675C113.104 51.2968 113.204 51.4122 113.329 51.5137C113.453 51.6152 113.595 51.706 113.754 51.786C113.916 51.866 114.083 51.946 114.254 52.026C114.445 52.1153 114.636 52.2137 114.83 52.3214C115.023 52.426 115.196 52.5522 115.349 52.6999C115.502 52.8445 115.625 53.0184 115.718 53.2215C115.815 53.4245 115.863 53.6707 115.863 53.9599C115.863 54.5846 115.625 55.0754 115.148 55.4323C114.671 55.7892 114.041 55.9677 113.258 55.9677C112.694 55.9677 112.138 55.88 111.589 55.7046L111.561 55.6631L111.809 54.0015L112.099 53.9553L112.449 55.3677C112.674 55.4692 112.923 55.52 113.198 55.52C113.594 55.52 113.912 55.4215 114.152 55.2246C114.395 55.0246 114.516 54.7584 114.516 54.4261C114.516 54.2384 114.479 54.0799 114.404 53.9507C114.329 53.8184 114.228 53.7015 114.1 53.5999C113.972 53.4953 113.827 53.403 113.665 53.323C113.503 53.243 113.335 53.163 113.16 53.083C112.97 52.9907 112.78 52.8937 112.59 52.7922C112.399 52.6907 112.23 52.5676 112.08 52.423C111.93 52.2783 111.809 52.106 111.715 51.906C111.622 51.7029 111.575 51.4583 111.575 51.1722C111.575 50.5844 111.802 50.1167 112.258 49.769C112.713 49.4213 113.304 49.2475 114.03 49.2475C114.491 49.2475 115.017 49.3183 115.606 49.4598L115.634 49.5013L115.349 50.9875L115.092 51.0291L114.75 49.7921Z" fill="#9E3039"/>
<path d="M119.151 49.6767C119.385 49.6767 119.601 49.7152 119.801 49.7921L120.142 51.0291L120.4 50.9875L120.685 49.5013L120.657 49.4598C120.067 49.3183 119.542 49.2475 119.081 49.2475C118.354 49.2475 117.763 49.4213 117.308 49.769C116.853 50.1167 116.626 50.5844 116.626 51.1722C116.626 51.4583 116.672 51.7029 116.766 51.906C116.859 52.106 116.981 52.2783 117.131 52.423C117.28 52.5676 117.45 52.6907 117.64 52.7922C117.831 52.8937 118.021 52.9907 118.211 53.083C118.385 53.163 118.554 53.243 118.716 53.323C118.878 53.403 119.023 53.4953 119.151 53.5999C119.279 53.7015 119.38 53.8184 119.455 53.9507C119.53 54.0799 119.567 54.2384 119.567 54.4261C119.567 54.7584 119.446 55.0246 119.202 55.2246C118.962 55.4215 118.644 55.52 118.248 55.52C117.974 55.52 117.725 55.4692 117.5 55.3677L117.149 53.9553L116.859 54.0015L116.611 55.6631L116.64 55.7046C117.188 55.88 117.745 55.9677 118.309 55.9677C119.092 55.9677 119.721 55.7892 120.198 55.4323C120.675 55.0754 120.914 54.5846 120.914 53.9599C120.914 53.6707 120.866 53.4245 120.769 53.2215C120.675 53.0184 120.552 52.8445 120.4 52.6999C120.247 52.5522 120.074 52.426 119.88 52.3214C119.687 52.2137 119.495 52.1153 119.305 52.026C119.134 51.946 118.967 51.866 118.805 51.786C118.646 51.706 118.504 51.6152 118.379 51.5137C118.255 51.4122 118.155 51.2968 118.08 51.1675C118.005 51.0383 117.968 50.8829 117.968 50.7014C117.968 50.3998 118.081 50.1537 118.309 49.9629C118.54 49.7721 118.82 49.6767 119.151 49.6767Z" fill="#9E3039"/>
<path d="M134.528 51.1398L134.785 51.0983L135.089 49.4829L135.061 49.4367C134.487 49.3106 133.926 49.2475 133.377 49.2475C132.267 49.2475 131.368 49.5552 130.679 50.1706C129.99 50.786 129.645 51.6214 129.645 52.6768C129.645 53.6676 129.959 54.4661 130.585 55.0723C131.215 55.6785 132.04 55.9815 133.059 55.9815C133.845 55.9815 134.549 55.7723 135.173 55.3538L135.112 55.0907C134.626 55.2661 134.163 55.3538 133.723 55.3538C132.934 55.3538 132.317 55.0923 131.871 54.5692C131.429 54.0461 131.207 53.3445 131.207 52.4645C131.207 51.6399 131.396 50.9737 131.773 50.466C132.15 49.9552 132.683 49.6998 133.372 49.6998C133.659 49.6998 133.926 49.7383 134.172 49.8152L134.528 51.1398Z" fill="#9E3039"/>
<path d="M138.077 54.8692C138.08 55.02 138.083 55.1554 138.086 55.2754C138.09 55.3554 138.143 55.4092 138.245 55.4369L138.821 55.5984L138.835 55.8292C138.401 55.82 137.921 55.8154 137.394 55.8154C136.849 55.8154 136.362 55.82 135.935 55.8292L135.912 55.5984L136.538 55.4277C136.616 55.4061 136.659 55.3584 136.665 55.2846C136.668 55.1615 136.669 55.0246 136.669 54.8738C136.673 54.72 136.674 54.5507 136.674 54.3661V50.6875C136.674 50.5337 136.673 50.3937 136.669 50.2675C136.669 50.1414 136.668 50.026 136.665 49.9213C136.662 49.8413 136.624 49.7906 136.553 49.769L135.926 49.589L135.912 49.3536C136.345 49.3659 136.825 49.3721 137.352 49.3721C137.895 49.3721 138.381 49.3659 138.811 49.3536L138.835 49.589L138.208 49.7598C138.133 49.7783 138.093 49.8244 138.086 49.8983C138.085 49.9561 138.083 50.0165 138.082 50.0794C138.08 50.1369 138.079 50.1966 138.077 50.2583V54.8692Z" fill="#9E3039"/>
<path fill-rule="evenodd" clip-rule="evenodd" d="M140.691 54.6292L141.023 53.7661H142.941L143.249 54.6338C143.309 54.7969 143.354 54.9292 143.385 55.0307C143.416 55.1292 143.432 55.2092 143.432 55.2707C143.432 55.3261 143.418 55.3677 143.39 55.3954C143.362 55.4231 143.316 55.4461 143.254 55.4646L142.791 55.5984L142.814 55.8292C143.351 55.82 143.901 55.8154 144.465 55.8154C144.892 55.8154 145.316 55.82 145.737 55.8292L145.723 55.5984L145.265 55.4646C145.147 55.4308 145.055 55.3769 144.989 55.3031C144.927 55.2261 144.857 55.08 144.779 54.8646L142.763 49.2521L142.258 49.3259L139.929 54.9246C139.86 55.0846 139.798 55.2046 139.742 55.2846C139.686 55.3615 139.599 55.4169 139.48 55.4508L138.98 55.5984L139.003 55.8292C139.383 55.82 139.722 55.8154 140.018 55.8154C140.302 55.8154 140.669 55.82 141.122 55.8292L141.108 55.5892L140.659 55.46C140.599 55.4446 140.556 55.4231 140.528 55.3954C140.5 55.3677 140.486 55.3277 140.486 55.2754C140.486 55.22 140.503 55.1415 140.537 55.04C140.574 54.9354 140.626 54.7984 140.691 54.6292ZM141.851 51.6152C141.917 51.4429 141.977 51.2768 142.033 51.1168C142.083 51.2768 142.138 51.4445 142.197 51.6199L142.772 53.2861H141.21L141.851 51.6152Z" fill="#9E3039"/>
<path d="M148.193 55.8154C147.644 55.8154 147.12 55.82 146.621 55.8292L146.598 55.5984L147.346 55.3954C147.424 55.3708 147.465 55.3215 147.468 55.2477C147.474 55.0169 147.477 54.72 147.477 54.3569V49.8475H146.13L145.7 51.0752L145.438 51.1168L145.316 49.3906L145.349 49.3536C146.116 49.3659 146.85 49.3721 147.552 49.3721H148.857C149.558 49.3721 150.297 49.3659 151.073 49.3536L151.101 49.3906L150.793 51.0798L150.531 51.1214L150.227 49.8475H148.875V54.3569C148.875 54.72 148.878 55.0169 148.885 55.2477C148.888 55.3215 148.93 55.3708 149.011 55.3954L149.745 55.5984L149.759 55.8292C149.242 55.82 148.719 55.8154 148.193 55.8154Z" fill="#9E3039"/>
<path d="M153.716 54.8692V50.2583C153.719 50.129 153.722 50.009 153.725 49.8983C153.731 49.8244 153.772 49.7783 153.847 49.7598L154.473 49.589L154.45 49.3536C154.02 49.3659 153.533 49.3721 152.991 49.3721C152.464 49.3721 151.984 49.3659 151.55 49.3536L151.564 49.589L152.191 49.769C152.263 49.7906 152.3 49.8413 152.303 49.9213C152.306 50.026 152.308 50.1414 152.308 50.2675C152.311 50.3937 152.313 50.5337 152.313 50.6875V54.3661C152.313 54.5507 152.311 54.72 152.308 54.8738C152.308 55.0246 152.306 55.1615 152.303 55.2846C152.297 55.3584 152.255 55.4061 152.177 55.4277L151.55 55.5984L151.574 55.8292C152.001 55.82 152.487 55.8154 153.033 55.8154C153.56 55.8154 154.04 55.82 154.473 55.8292L154.459 55.5984L153.884 55.4369C153.781 55.4092 153.728 55.3554 153.725 55.2754L153.723 55.2032L153.721 55.0933L153.716 54.8692Z" fill="#9E3039"/>
<path fill-rule="evenodd" clip-rule="evenodd" d="M162.363 52.446C162.363 53.5107 162.045 54.3676 161.409 55.0169C160.773 55.6631 159.887 55.9862 158.752 55.9862C157.667 55.9862 156.829 55.6877 156.236 55.0907C155.644 54.4907 155.348 53.6799 155.348 52.6584C155.348 51.5937 155.667 50.7521 156.306 50.1337C156.946 49.5121 157.829 49.2013 158.958 49.2013C160.043 49.2013 160.882 49.4921 161.474 50.0737C162.066 50.6521 162.363 51.4429 162.363 52.446ZM156.919 52.506C156.919 53.4907 157.087 54.2446 157.424 54.7677C157.761 55.2877 158.255 55.5477 158.907 55.5477C159.549 55.5477 160.023 55.3107 160.328 54.8369C160.637 54.363 160.791 53.6184 160.791 52.603C160.791 51.6491 160.629 50.9168 160.305 50.406C159.981 49.8921 159.479 49.6352 158.799 49.6352C158.141 49.6352 157.663 49.8737 157.363 50.3506C157.067 50.8245 156.919 51.5429 156.919 52.506Z" fill="#9E3039"/>
<path d="M164.617 55.4277C164.542 55.4092 164.503 55.3554 164.5 55.2661C164.494 55.0292 164.491 54.7292 164.491 54.3661V51.4445C164.491 51.2537 164.487 51.0445 164.481 50.8168C164.625 51.0075 164.751 51.1722 164.86 51.3106L168.545 55.8661L169.083 55.8154V50.6875C169.083 50.3798 169.088 50.1244 169.097 49.9213C169.1 49.8413 169.138 49.7906 169.209 49.769L169.845 49.589L169.822 49.3536C169.401 49.3659 169.053 49.3721 168.779 49.3721C168.511 49.3721 168.162 49.3659 167.731 49.3536L167.745 49.5983L168.344 49.7598C168.422 49.7813 168.463 49.8275 168.466 49.8983C168.472 50.1137 168.475 50.3706 168.475 50.6691V53.0738C168.475 53.2707 168.478 53.4753 168.484 53.6876C168.353 53.5153 168.226 53.3522 168.101 53.1984L164.991 49.3536C164.717 49.3659 164.427 49.3721 164.121 49.3721C163.887 49.3721 163.552 49.3659 163.116 49.3536L163.13 49.589L163.756 49.769C163.828 49.7906 163.865 49.8413 163.869 49.9213C163.875 50.1244 163.878 50.3798 163.878 50.6875V54.3661C163.878 54.7292 163.875 55.0354 163.869 55.2846C163.865 55.3554 163.823 55.4031 163.742 55.4277L163.116 55.5984L163.139 55.8292C163.572 55.82 163.923 55.8154 164.191 55.8154C164.462 55.8154 164.809 55.82 165.229 55.8292L165.215 55.5892L164.617 55.4277Z" fill="#9E3039"/>
</svg>
