<svg width="32" height="40" viewBox="0 0 32 40" fill="none" xmlns="http://www.w3.org/2000/svg">
<path fill-rule="evenodd" clip-rule="evenodd" d="M20.6452 0.51282C20.6452 0.229597 20.4141 0 20.129 0H5.67742C2.54187 0 0 2.52558 0 5.64103V34.359C0 37.4744 2.54187 40 5.67742 40H26.3226C29.4581 40 32 37.4744 32 34.359V14.1478C32 13.8646 31.7689 13.635 31.4839 13.635H22.1935C21.3384 13.635 20.6452 12.9462 20.6452 12.0965V0.51282Z" fill="#EE3E36"/>
<path d="M23.0003 1.58297C23.0003 1.20452 23.398 0.964225 23.6944 1.20195C23.944 1.40218 24.1684 1.63676 24.3598 1.90177L30.5805 10.5128C30.7222 10.7089 30.5688 10.9633 30.3259 10.9633H23.5164C23.2314 10.9633 23.0003 10.7337 23.0003 10.4505V1.58297Z" fill="#EE3E36"/>
<path d="M8.464 32V26.4H11.416C11.784 26.4 12.1093 26.48 12.392 26.64C12.68 26.7947 12.9067 27.008 13.072 27.28C13.2373 27.552 13.32 27.864 13.32 28.216C13.32 28.552 13.2373 28.856 13.072 29.128C12.9067 29.3947 12.68 29.6053 12.392 29.76C12.104 29.9147 11.7787 29.992 11.416 29.992H9.84V32H8.464ZM9.84 28.856H11.256C11.4587 28.856 11.6213 28.7973 11.744 28.68C11.8667 28.5627 11.928 28.4107 11.928 28.224C11.928 28.032 11.8667 27.8773 11.744 27.76C11.6213 27.6373 11.4587 27.576 11.256 27.576H9.84V28.856ZM15.4025 30.784H16.2665C16.4852 30.784 16.6878 30.744 16.8745 30.664C17.0665 30.584 17.2345 30.472 17.3785 30.328C17.5225 30.184 17.6345 30.0187 17.7145 29.832C17.7945 29.64 17.8345 29.4347 17.8345 29.216C17.8345 28.992 17.7945 28.784 17.7145 28.592C17.6345 28.3947 17.5225 28.224 17.3785 28.08C17.2345 27.936 17.0665 27.824 16.8745 27.744C16.6878 27.6587 16.4852 27.616 16.2665 27.616H15.4025V30.784ZM14.0265 32V26.4H16.2985C16.7145 26.4 17.1012 26.472 17.4585 26.616C17.8158 26.76 18.1278 26.96 18.3945 27.216C18.6665 27.472 18.8772 27.7707 19.0265 28.112C19.1812 28.4533 19.2585 28.8213 19.2585 29.216C19.2585 29.6053 19.1812 29.968 19.0265 30.304C18.8772 30.64 18.6665 30.936 18.3945 31.192C18.1278 31.4427 17.8158 31.64 17.4585 31.784C17.1012 31.928 16.7145 32 16.2985 32H14.0265ZM19.9874 32V26.4H24.4354V27.592H21.3634V28.64H23.4114V29.792H21.3634V32H19.9874Z" fill="white"/>
</svg>
