<svg width="32" height="40" viewBox="0 0 32 40" fill="none" xmlns="http://www.w3.org/2000/svg">
<path fill-rule="evenodd" clip-rule="evenodd" d="M20.6452 0.51282C20.6452 0.229597 20.4141 0 20.129 0H5.67742C2.54187 0 0 2.52558 0 5.64103V34.359C0 37.4744 2.54187 40 5.67742 40H26.3226C29.4581 40 32 37.4744 32 34.359V14.1478C32 13.8646 31.7689 13.635 31.4839 13.635H22.1935C21.3384 13.635 20.6452 12.9462 20.6452 12.0965V0.51282Z" fill="#3164BC"/>
<path d="M23.0003 1.58297C23.0003 1.20452 23.398 0.964225 23.6944 1.20195C23.944 1.40218 24.1684 1.63676 24.3598 1.90177L30.5805 10.5128C30.7222 10.7089 30.5688 10.9633 30.3259 10.9633H23.5164C23.2314 10.9633 23.0003 10.7337 23.0003 10.4505V1.58297Z" fill="#3164BC"/>
<path d="M7.432 30.202L6.184 24.6019H7.6L8.28 28.058L9.256 24.6019H10.544L11.52 28.058L12.2 24.6019H13.568L12.32 30.202H10.864L9.88 26.6339L8.888 30.202H7.432ZM15.8946 30.282C15.4626 30.282 15.0733 30.186 14.7266 29.994C14.38 29.7966 14.1053 29.5326 13.9026 29.202C13.7 28.8713 13.5986 28.5006 13.5986 28.09C13.5986 27.6793 13.7 27.3086 13.9026 26.9779C14.1053 26.6419 14.38 26.3779 14.7266 26.1859C15.0733 25.9886 15.4626 25.8899 15.8946 25.8899C16.3266 25.8899 16.716 25.9886 17.0626 26.1859C17.4093 26.3779 17.684 26.6419 17.8866 26.9779C18.0893 27.3086 18.1906 27.6793 18.1906 28.09C18.1906 28.5006 18.0893 28.8713 17.8866 29.202C17.684 29.5326 17.4093 29.7966 17.0626 29.994C16.716 30.186 16.3266 30.282 15.8946 30.282ZM15.8946 29.1619C16.092 29.1619 16.268 29.114 16.4226 29.018C16.5773 28.922 16.7 28.794 16.7906 28.6339C16.8813 28.4686 16.9266 28.2873 16.9266 28.09C16.9266 27.8873 16.8813 27.7059 16.7906 27.5459C16.7 27.3806 16.5746 27.25 16.4146 27.1539C16.26 27.0579 16.0866 27.0099 15.8946 27.0099C15.7026 27.0099 15.5266 27.0579 15.3666 27.1539C15.212 27.25 15.0893 27.3806 14.9986 27.5459C14.908 27.7059 14.8626 27.8873 14.8626 28.09C14.8626 28.2873 14.908 28.4686 14.9986 28.6339C15.0893 28.794 15.212 28.922 15.3666 29.018C15.5266 29.114 15.7026 29.1619 15.8946 29.1619ZM18.7984 30.202V25.9699H20.0944V26.3939C20.2331 26.2233 20.3958 26.0953 20.5824 26.0099C20.7691 25.9193 20.9771 25.874 21.2064 25.874C21.4358 25.8793 21.5984 25.9139 21.6944 25.978V27.1059C21.6091 27.0633 21.5131 27.0313 21.4064 27.0099C21.2998 26.9886 21.1904 26.9779 21.0784 26.9779C20.8758 26.9779 20.6864 27.0259 20.5104 27.1219C20.3398 27.2126 20.2011 27.3433 20.0944 27.5139V30.202H18.7984ZM24.1024 30.258C23.7024 30.258 23.337 30.162 23.0064 29.97C22.681 29.7726 22.4224 29.5113 22.2304 29.186C22.0384 28.8553 21.9424 28.4873 21.9424 28.0819C21.9424 27.6766 22.0384 27.3113 22.2304 26.9859C22.4277 26.6553 22.6917 26.3939 23.0224 26.202C23.3584 26.01 23.7317 25.9139 24.1424 25.9139C24.3397 25.9139 24.529 25.9379 24.7104 25.9859C24.8917 26.034 25.0624 26.1033 25.2224 26.1939V24.6019L26.5184 24.4019V30.202H25.2384V29.89C24.9024 30.1353 24.5237 30.258 24.1024 30.258ZM24.3264 29.1539C24.5077 29.1539 24.673 29.1273 24.8224 29.074C24.9717 29.0153 25.105 28.9299 25.2224 28.818V27.3379C25.1104 27.2313 24.977 27.1513 24.8224 27.0979C24.6677 27.0393 24.5024 27.0099 24.3264 27.0099C24.1184 27.0099 23.929 27.0579 23.7584 27.1539C23.593 27.2446 23.4597 27.3726 23.3584 27.538C23.2624 27.698 23.2144 27.8793 23.2144 28.0819C23.2144 28.2846 23.2624 28.4686 23.3584 28.6339C23.4597 28.794 23.593 28.922 23.7584 29.018C23.929 29.1086 24.1184 29.1539 24.3264 29.1539Z" fill="white"/>
</svg>
